<svg version="1.1" id="Layer_1" xmlns="http://www.w3.org/2000/svg" xmlns:xlink="http://www.w3.org/1999/xlink" x="0px" y="0px"
	 width="100%" viewBox="0 0 5000 5000" enable-background="new 0 0 5000 5000" xml:space="preserve">
<path fill="#FFFFFF" opacity="1.000000" stroke="none" 
	d="
M4660.000000,5004.000000 
	C3106.666748,5004.000000 1555.333374,5004.000000 4.000000,5004.000000 
	C4.000000,3337.333252 4.000000,1670.666626 4.000000,4.000001 
	C1670.666626,4.000000 3337.333252,4.000000 5004.000000,4.000000 
	C5004.000000,1670.666626 5004.000000,3337.333252 5004.000000,5004.000000 
	C4890.000000,5004.000000 4776.000000,5004.000000 4660.000000,5004.000000 
M910.098511,2579.385742 
	C906.788269,2579.738037 903.478088,2580.090332 897.266602,2580.303711 
	C893.480896,2582.930420 889.016052,2584.954102 886.042542,2588.302246 
	C878.519775,2596.772461 877.831726,2608.542236 883.433411,2618.030029 
	C889.118591,2627.658936 900.322754,2632.977539 910.528076,2630.892090 
	C922.143005,2628.518555 930.753357,2619.362549 931.891541,2607.534668 
	C932.392883,2602.324463 931.976013,2597.026367 931.976013,2591.101562 
	C944.964539,2579.383789 955.929749,2565.105957 971.016296,2554.373291 
	C979.834778,2561.327881 987.694763,2568.171875 993.715515,2578.059570 
	C989.450256,2582.677002 985.554321,2587.163818 981.375671,2591.369629 
	C966.812744,2606.027588 951.611938,2620.095215 937.690735,2635.334717 
	C925.475952,2648.705811 912.551086,2658.958740 893.157288,2656.573242 
	C891.865662,2656.414062 890.510681,2656.847900 889.180603,2656.911621 
	C880.094238,2657.347900 872.872681,2660.907227 866.537537,2667.787354 
	C856.194580,2679.020020 844.984985,2689.454590 835.428833,2698.946777 
	C828.819641,2698.946777 824.142029,2698.572510 819.543152,2699.015869 
	C805.169983,2700.401367 795.190491,2712.183594 796.112732,2726.287842 
	C796.960510,2739.252441 807.735413,2750.015869 820.780762,2750.929443 
	C834.262817,2751.873535 846.772888,2741.173828 848.088928,2727.179443 
	C848.577209,2721.987061 848.167908,2716.710205 848.167908,2709.461182 
	C855.457031,2702.616455 864.548889,2695.565430 871.738037,2686.930420 
	C879.745667,2677.312744 889.590393,2673.729248 901.307129,2673.060547 
	C904.633362,2672.870605 907.974854,2672.112305 911.266907,2672.312744 
	C922.226074,2672.979736 929.917664,2667.823242 937.305847,2660.189697 
	C957.697632,2639.119873 978.683777,2618.625000 999.479492,2597.947266 
	C1002.202209,2595.239990 1004.463013,2591.479980 1010.264221,2592.699951 
	C1015.360352,2597.446289 1021.591614,2602.220947 1025.896484,2610.835449 
	C987.930115,2649.184326 949.719666,2687.092529 912.947083,2724.023682 
	C905.609985,2724.023682 900.248962,2723.429932 895.067017,2724.140869 
	C882.275330,2725.896240 872.284241,2738.468018 873.080811,2751.049805 
	C873.956848,2764.886230 885.758972,2775.982910 899.558228,2775.944580 
	C912.906616,2775.907471 923.699829,2766.219482 924.984253,2752.667969 
	C925.475891,2747.480469 925.064209,2742.207275 925.064209,2737.298584 
	C968.091614,2690.634033 1027.325195,2632.784668 1041.580688,2623.817139 
	C1046.919922,2629.122803 1052.436890,2634.605225 1057.750488,2639.885498 
	C1048.835815,2653.187988 1006.949036,2696.114746 983.688660,2716.225098 
	C978.057556,2716.225098 972.689392,2715.657471 967.483337,2716.335205 
	C953.829407,2718.112793 943.337524,2731.630127 944.891846,2744.769287 
	C946.455139,2757.984375 957.358215,2767.992920 970.515137,2768.289551 
	C984.815552,2768.612305 995.859680,2758.516113 996.866516,2743.947998 
	C997.186157,2739.323730 996.916443,2734.658936 996.916443,2729.150391 
	C1019.815796,2706.191406 1043.307373,2682.603760 1066.880615,2659.098145 
	C1068.189697,2657.792969 1070.176270,2657.167480 1073.146240,2655.493896 
	C1078.846313,2661.337891 1085.818359,2666.040771 1089.744019,2674.653564 
	C1085.903687,2679.004883 1082.608276,2683.114502 1078.926025,2686.841797 
	C1067.217285,2698.693359 1055.315430,2710.353516 1043.579834,2722.178955 
	C1028.928223,2736.942383 1030.240356,2732.392822 1029.657837,2755.207275 
	C1029.011963,2780.506104 1028.629150,2805.811523 1028.129639,2831.223145 
	C1024.485474,2834.454834 1020.645203,2837.165039 1017.675964,2840.623291 
	C1008.401306,2851.424805 1009.217102,2867.305176 1019.180481,2876.722168 
	C1029.603149,2886.573730 1044.789062,2886.406982 1055.165527,2876.327148 
	C1065.603394,2866.187744 1066.286499,2851.876709 1056.532349,2840.399658 
	C1053.581299,2836.927734 1049.797119,2834.163818 1045.751831,2830.492188 
	C1046.344482,2801.476562 1046.941528,2772.238525 1047.522217,2743.810303 
	C1073.187134,2714.880371 1093.195435,2695.765625 1105.774414,2688.191895 
	C1115.223755,2697.176514 1124.781006,2706.263672 1134.023193,2715.051270 
	C1151.708618,2713.745117 1168.286255,2712.532471 1184.858032,2711.244141 
	C1185.377319,2711.203857 1185.836182,2710.386230 1186.694336,2709.584473 
	C1181.077271,2700.301514 1170.890381,2694.519043 1164.560791,2683.713867 
	C1172.042480,2679.780273 1178.518311,2681.639160 1184.781616,2682.029785 
	C1190.767700,2682.402832 1196.736938,2683.132812 1202.726196,2683.344238 
	C1209.332642,2683.577148 1215.953613,2683.397217 1220.965332,2683.397217 
	C1233.452148,2695.826660 1244.754761,2707.077393 1256.053955,2718.324463 
	C1256.053955,2723.631592 1255.613281,2728.957275 1256.145630,2734.183838 
	C1257.258057,2745.107422 1265.856934,2754.319824 1276.178345,2756.347656 
	C1287.599731,2758.591309 1297.994263,2754.411865 1304.005127,2745.158447 
	C1314.716187,2728.669434 1304.278198,2707.143555 1284.175659,2704.852539 
	C1279.073853,2704.270996 1273.792480,2705.266602 1268.745728,2705.529541 
	C1256.617554,2693.290771 1245.005493,2681.572998 1232.921265,2669.378906 
	C1240.734619,2659.820801 1247.826050,2651.358887 1258.667847,2644.980957 
	C1280.046631,2666.624512 1300.893188,2688.176270 1322.310059,2709.145264 
	C1328.966797,2715.663086 1332.454346,2722.562988 1332.507568,2731.821045 
	C1332.541748,2737.772461 1334.537964,2743.718018 1334.522949,2749.663086 
	C1334.500610,2758.518555 1338.834229,2764.556396 1344.835083,2770.325684 
	C1355.822266,2780.889404 1366.432251,2791.845459 1375.961548,2801.397217 
	C1375.961548,2808.847900 1375.388672,2814.231689 1376.084106,2819.446289 
	C1377.420288,2829.466309 1385.752686,2838.150391 1395.360718,2840.032471 
	C1405.970093,2842.110596 1415.329834,2839.679688 1422.231812,2830.927490 
	C1434.997437,2814.740234 1425.132080,2791.337646 1404.269653,2788.653320 
	C1399.140625,2787.993164 1393.799438,2788.980713 1390.817139,2789.111816 
	C1377.065063,2775.732178 1364.717773,2763.719727 1352.499023,2751.832031 
	C1351.277222,2742.339844 1349.263550,2733.105957 1349.116943,2723.843018 
	C1348.954224,2713.559326 1344.308105,2706.543457 1337.287354,2699.723145 
	C1317.208130,2680.217529 1297.554077,2660.273438 1277.826050,2640.409180 
	C1275.151489,2637.716309 1273.008545,2634.494873 1270.265625,2631.077393 
	C1277.013184,2624.340332 1281.685059,2617.074951 1288.079590,2614.361328 
	C1326.164307,2652.494141 1363.303955,2689.680664 1401.323242,2727.747803 
	C1401.323242,2731.963867 1400.289062,2738.104248 1401.531738,2743.743408 
	C1404.397339,2756.747803 1417.327637,2765.295654 1429.987915,2763.646484 
	C1443.963379,2761.825928 1453.519287,2749.961914 1452.638306,2735.525146 
	C1451.825439,2722.203369 1441.808716,2712.398682 1427.862915,2711.670654 
	C1423.287476,2711.431641 1418.668823,2712.018555 1414.645874,2712.201416 
	C1376.133667,2676.697998 1313.620728,2613.138428 1303.051147,2598.565674 
	C1308.457764,2592.322510 1313.817627,2585.798096 1322.209229,2580.970947 
	C1346.600464,2605.529297 1371.210083,2629.724365 1394.314453,2653.336426 
	C1393.844360,2659.924561 1392.677979,2664.658447 1393.341064,2669.120361 
	C1395.468994,2683.439453 1407.691895,2693.044678 1421.488892,2691.961182 
	C1435.462769,2690.864014 1445.603882,2679.197021 1445.132202,2664.760498 
	C1444.667725,2650.540283 1434.262329,2640.420410 1419.299072,2639.793701 
	C1414.753540,2639.603271 1410.193237,2639.764160 1405.171021,2639.764160 
	C1393.489624,2627.960449 1381.573608,2616.319092 1370.122559,2604.237549 
	C1358.384888,2591.853516 1344.529419,2581.339111 1335.052246,2566.648193 
	C1341.062134,2560.074707 1346.398438,2554.238037 1352.660400,2547.388672 
	C1373.735962,2568.142822 1393.561768,2587.666260 1413.612671,2607.411377 
	C1445.782104,2607.785156 1477.653931,2608.155518 1508.406738,2608.512695 
	C1512.094971,2612.997314 1514.267700,2616.470215 1517.211182,2619.071289 
	C1528.608398,2629.142578 1545.107056,2628.158203 1554.797607,2617.120605 
	C1563.213501,2607.534668 1562.962646,2591.813477 1554.243042,2582.383789 
	C1544.297119,2571.627686 1527.993530,2571.177246 1516.660278,2581.595703 
	C1513.349854,2584.638672 1510.638672,2588.333496 1508.494507,2590.772217 
	C1487.556763,2590.772217 1468.138550,2589.553223 1448.944336,2591.104736 
	C1428.522095,2592.755371 1413.266846,2586.431641 1400.330200,2570.574463 
	C1390.348511,2558.339111 1378.210815,2547.862305 1366.141846,2535.707520 
	C1376.029175,2525.221924 1385.027954,2515.678955 1394.491455,2505.642822 
	C1385.271118,2492.197754 1371.100342,2483.574951 1362.044189,2469.573486 
	C1375.171265,2456.777832 1388.007446,2444.265625 1400.733398,2431.861084 
	C1406.045044,2431.861084 1411.397339,2432.371094 1416.619019,2431.761963 
	C1430.340454,2430.161865 1440.810425,2417.049561 1439.548706,2403.644775 
	C1438.317017,2390.559326 1427.354370,2380.189209 1414.291626,2379.753418 
	C1400.021362,2379.277344 1388.609497,2389.350830 1387.518921,2403.720459 
	C1387.124268,2408.918945 1387.455566,2414.172607 1387.455566,2420.405273 
	C1381.437256,2426.086182 1375.240967,2432.143311 1368.814209,2437.945068 
	C1362.058960,2444.042969 1356.705688,2451.807617 1348.798706,2456.445801 
	C1340.515869,2448.461426 1333.027344,2441.242920 1324.496216,2433.019531 
	C1350.139893,2407.207764 1375.467041,2381.776855 1400.254517,2357.114502 
	C1412.019531,2355.654053 1422.554321,2353.970703 1433.155640,2353.161865 
	C1440.256836,2352.620605 1445.637329,2349.958008 1450.550537,2344.857666 
	C1461.619751,2333.366943 1473.120361,2322.291992 1483.492554,2311.993896 
	C1490.312988,2311.993896 1495.660278,2312.549072 1500.851440,2311.884766 
	C1513.753418,2310.233398 1523.776978,2298.001953 1523.214233,2285.296875 
	C1522.604126,2271.521729 1510.887939,2260.185059 1497.102783,2260.031250 
	C1483.804321,2259.882812 1472.587646,2269.610107 1471.284668,2282.882568 
	C1470.772827,2288.095703 1471.200806,2293.400879 1471.200806,2297.458740 
	C1458.738647,2310.659668 1446.868164,2323.233887 1435.578735,2335.192627 
	C1424.537964,2336.587646 1414.658813,2338.483154 1404.718140,2338.896973 
	C1396.050781,2339.257568 1389.747070,2342.655518 1383.830811,2348.696533 
	C1363.311035,2369.648682 1342.482056,2390.298828 1321.693237,2410.985840 
	C1318.506958,2414.156982 1314.912964,2416.918213 1310.996338,2420.311768 
	C1307.382935,2416.851318 1304.458130,2414.280273 1301.808105,2411.451660 
	C1298.800903,2408.241455 1294.542603,2405.885498 1294.046509,2402.353760 
	C1332.920898,2363.529785 1371.025024,2325.474854 1410.117065,2286.433594 
	C1410.196045,2286.442383 1412.127930,2286.715576 1414.069214,2286.854736 
	C1416.716675,2287.044189 1419.424927,2287.536377 1422.014648,2287.196045 
	C1441.949341,2284.576416 1452.324219,2262.812744 1441.405762,2246.605225 
	C1435.167603,2237.344727 1426.244385,2233.945312 1415.414185,2235.506836 
	C1404.300415,2237.109131 1397.107178,2243.813965 1394.831421,2254.484131 
	C1393.507324,2260.692139 1394.590454,2267.413574 1394.590454,2273.001221 
	C1359.085815,2311.765381 1291.732056,2377.850586 1278.077881,2387.257568 
	C1271.933594,2381.856689 1265.651123,2376.464355 1261.506958,2370.249512 
	C1287.456665,2344.428467 1312.404175,2319.604736 1338.217896,2293.919189 
	C1341.065796,2294.131348 1345.719482,2295.185547 1350.197632,2294.681152 
	C1364.708984,2293.047119 1374.606201,2281.386719 1373.997437,2267.387939 
	C1373.377686,2253.131592 1362.244629,2242.653564 1347.795898,2242.727295 
	C1333.439697,2242.800537 1322.960205,2252.730713 1321.958618,2267.743164 
	C1321.659302,2272.230469 1322.586060,2276.799805 1322.785889,2279.281738 
	C1297.668945,2304.983887 1273.934082,2329.296875 1250.120361,2353.532715 
	C1249.311646,2354.355713 1247.714233,2354.403320 1245.652344,2355.089355 
	C1240.380249,2349.786377 1234.827759,2344.201172 1228.684570,2338.021973 
	C1231.722046,2334.329834 1234.374023,2330.561279 1237.564209,2327.323242 
	C1251.130615,2313.553467 1264.417725,2299.458740 1278.692871,2286.455566 
	C1286.885376,2278.992920 1290.190674,2270.885742 1289.535522,2260.091309 
	C1289.012695,2251.473389 1289.809082,2242.773926 1290.047852,2234.111572 
	C1290.560547,2215.506836 1291.091187,2196.902344 1291.583984,2179.379883 
	C1296.090210,2175.351074 1300.056274,2172.681152 1302.885620,2169.110352 
	C1311.204590,2158.611816 1310.028809,2143.867432 1300.617676,2134.606689 
	C1290.698853,2124.846436 1274.526123,2124.708252 1264.533813,2134.298096 
	C1254.612915,2143.819580 1253.148682,2157.900879 1261.505127,2168.672119 
	C1264.683472,2172.768555 1269.008545,2175.975098 1272.758301,2179.537354 
	C1272.758301,2194.518799 1273.075806,2209.155518 1272.670898,2223.772217 
	C1272.248901,2239.002930 1273.646851,2254.337402 1271.040039,2269.720947 
	C1261.873657,2278.702393 1252.875977,2287.611816 1243.773560,2296.412354 
	C1234.296143,2305.575928 1225.593384,2315.606689 1215.008301,2324.010498 
	C1204.616089,2314.060791 1195.089233,2304.939697 1185.271973,2295.540283 
	C1167.726562,2296.903809 1150.591187,2298.235352 1130.507812,2299.796143 
	C1138.841431,2308.488770 1145.249390,2314.953613 1151.349365,2321.697021 
	C1152.788330,2323.287598 1153.190796,2325.815918 1154.694092,2329.400879 
	C1134.331055,2328.637939 1115.874756,2327.946533 1100.445923,2327.368408 
	C1086.540649,2314.499512 1074.382324,2303.247070 1063.224243,2292.920654 
	C1063.224243,2286.140381 1063.937866,2280.756104 1063.084839,2275.632568 
	C1060.891846,2262.459473 1048.999390,2253.296631 1035.950073,2253.984619 
	C1021.722290,2254.734863 1011.238220,2265.946289 1011.363159,2280.276855 
	C1011.481445,2293.834229 1020.689514,2304.251709 1034.553589,2305.707520 
	C1039.666992,2306.244629 1044.928833,2305.369873 1051.103516,2305.095459 
	C1056.968872,2311.293213 1062.972046,2317.526855 1068.848267,2323.877686 
	C1074.521240,2330.008789 1081.773438,2334.920898 1085.468872,2343.255127 
	C1081.173706,2347.858398 1077.730713,2351.883057 1073.925903,2355.530029 
	C1070.250488,2359.053223 1066.202515,2362.187744 1063.160767,2364.776123 
	C1037.841919,2339.413818 1013.440674,2314.970703 988.201233,2289.687988 
	C987.206604,2281.922607 985.189575,2272.683105 985.059082,2263.416748 
	C984.914124,2253.119385 980.330627,2246.018555 973.197815,2239.336182 
	C962.566772,2229.376221 952.510925,2218.802246 943.505310,2209.786133 
	C943.505310,2202.266357 944.393982,2196.780518 943.319702,2191.710449 
	C941.103516,2181.251709 935.001587,2173.694824 923.996521,2171.161377 
	C912.730774,2168.567871 902.149109,2172.546631 895.907776,2181.658936 
	C885.709839,2196.547607 893.288330,2216.922363 911.238403,2221.147217 
	C917.383240,2222.593506 924.154785,2221.376953 928.591003,2221.376953 
	C942.261047,2234.926514 954.519287,2247.076660 966.991272,2259.438477 
	C968.054810,2268.378662 969.686096,2277.608154 970.112549,2286.893311 
	C970.571106,2296.877686 974.588135,2304.247803 981.798035,2311.158447 
	C1001.522827,2330.064697 1020.619141,2349.627930 1039.896118,2368.999023 
	C1043.022217,2372.140625 1045.799561,2375.628906 1049.239258,2379.524414 
	C1042.713379,2386.711182 1037.674316,2393.415771 1031.070801,2396.828369 
	C992.923401,2358.644043 955.772278,2321.457275 917.511658,2283.159668 
	C917.788269,2281.240723 918.986511,2277.322021 918.796997,2273.471924 
	C918.030701,2257.905029 906.488953,2247.098633 891.581970,2247.506836 
	C877.339600,2247.896729 866.668579,2258.911621 866.602600,2273.291260 
	C866.533447,2288.367188 877.295898,2299.127441 893.245667,2299.646729 
	C897.148804,2299.773682 901.076721,2299.138428 904.408203,2298.895996 
	C931.033142,2322.774414 1005.798279,2398.358398 1016.300659,2412.126709 
	C1011.266235,2418.684082 1005.684814,2424.872070 998.512146,2429.322510 
	C984.233582,2418.049805 934.703125,2368.332031 924.919434,2355.553467 
	C925.298401,2351.689453 926.290894,2347.689453 925.965759,2343.799561 
	C924.719849,2328.893555 914.012085,2319.135986 899.627686,2319.298340 
	C885.348450,2319.459473 874.307068,2330.273193 873.893921,2344.501953 
	C873.490662,2358.388916 883.770691,2369.974854 898.220337,2371.296631 
	C902.741699,2371.710205 907.384949,2370.791016 912.465515,2370.448730 
	C917.166992,2374.995117 921.959290,2379.566406 926.679993,2384.210693 
	C931.906372,2389.352539 937.069336,2394.558838 942.256165,2399.740967 
	C946.971924,2404.452148 951.685303,2409.165771 956.394775,2413.883301 
	C961.574341,2419.071289 966.916382,2424.110352 971.873779,2429.502686 
	C976.191284,2434.198975 982.437378,2437.555664 984.083862,2445.030029 
	C978.360840,2450.943359 973.626648,2457.211426 965.856628,2461.429199 
	C961.687988,2457.776123 957.555603,2454.507812 953.831177,2450.826416 
	C941.507507,2438.645996 928.995667,2426.627441 917.226379,2413.925293 
	C910.390076,2406.547119 903.199097,2402.926025 892.819275,2403.348389 
	C876.192139,2404.024902 859.501892,2403.172852 842.838745,2402.933350 
	C832.235291,2402.780762 821.632568,2402.567871 814.074219,2402.435547 
	C807.885864,2396.869141 804.199280,2393.010986 799.981628,2389.864502 
	C788.869263,2381.574463 775.117859,2382.950684 765.611694,2392.958252 
	C756.237427,2402.827148 756.492249,2419.386719 766.167725,2429.102539 
	C775.407104,2438.380371 790.417603,2439.494385 800.728455,2431.167969 
	C804.738220,2427.929688 807.892822,2423.632568 810.865051,2420.433594 
	C837.871155,2420.433594 863.853577,2420.606445 889.830811,2420.313477 
	C896.418335,2420.239502 901.173523,2422.501221 905.646362,2427.089355 
	C918.202759,2439.969727 931.130371,2452.487305 943.723511,2465.332520 
	C946.811035,2468.481934 951.265320,2470.884766 951.536621,2477.229736 
	C942.856873,2486.270264 933.718018,2495.788818 924.713623,2505.167480 
	C934.324524,2518.880127 948.679688,2527.291260 957.631592,2542.951904 
	C945.746826,2554.187012 933.992188,2565.027100 922.603760,2576.239014 
	C919.400879,2579.392334 915.840881,2580.087158 910.098511,2579.385742 
M1938.847412,2529.997559 
	C1938.847778,2567.986816 1938.844116,2605.976318 1938.854004,2643.965576 
	C1938.855225,2648.630371 1938.683960,2653.312500 1939.011719,2657.957031 
	C1940.385376,2677.419678 1954.836670,2692.062744 1974.982300,2694.610107 
	C1993.259521,2696.921143 2011.400635,2685.913818 2016.890747,2667.958496 
	C2019.172607,2660.495605 2019.756836,2652.278076 2019.784790,2644.398926 
	C2020.006714,2581.750977 2019.900024,2519.102051 2019.923828,2456.453369 
	C2019.926147,2450.458008 2019.794312,2444.433594 2020.311768,2438.473633 
	C2021.449829,2425.365967 2026.969116,2414.150146 2036.320557,2404.958984 
	C2053.690186,2387.886963 2077.894531,2387.898438 2095.309570,2404.876465 
	C2104.756348,2414.086426 2109.974609,2425.404297 2111.120850,2438.469971 
	C2111.643311,2444.427979 2111.438721,2450.456299 2111.440674,2456.452637 
	C2111.459961,2517.768311 2111.452881,2579.083984 2111.456543,2640.399658 
	C2111.456787,2645.731445 2111.268066,2651.073486 2111.528564,2656.393311 
	C2112.561035,2677.491211 2128.886475,2693.718506 2150.047607,2694.851318 
	C2171.032227,2695.974609 2188.978516,2681.078613 2191.861816,2659.947754 
	C2192.399658,2656.007568 2192.335693,2651.968018 2192.336670,2647.974365 
	C2192.354980,2577.994385 2192.426514,2508.014404 2192.220459,2438.034912 
	C2192.195068,2429.439453 2191.403809,2420.694092 2189.683105,2412.280518 
	C2177.015625,2350.344971 2100.051270,2297.826904 2029.363037,2322.278076 
	C2015.385742,2327.112793 2002.424072,2333.651123 1990.285889,2342.004150 
	C1986.620117,2344.527100 1982.734375,2346.730713 1979.724121,2348.599609 
	C1970.692261,2342.773682 1963.149292,2337.221680 1955.003418,2332.774170 
	C1921.682373,2314.580811 1886.874146,2310.235596 1851.064453,2324.279297 
	C1810.257202,2340.282471 1781.483398,2368.174072 1770.307373,2411.580322 
	C1767.686279,2421.760254 1766.987061,2432.664307 1766.942749,2443.241455 
	C1766.655762,2511.887207 1766.791504,2580.534424 1766.801147,2649.181396 
	C1766.801636,2652.512207 1766.719360,2655.861328 1767.017578,2659.171143 
	C1768.730347,2678.180420 1784.183716,2692.943604 1804.120483,2694.739502 
	C1822.815186,2696.423340 1839.971924,2685.024414 1844.838623,2666.564209 
	C1846.838989,2658.976562 1847.293945,2650.808350 1847.318726,2642.900391 
	C1847.510620,2581.585205 1847.415161,2520.269287 1847.439575,2458.953613 
	C1847.442261,2452.291260 1847.551514,2445.626221 1847.767456,2438.967529 
	C1848.103271,2428.611328 1852.071289,2419.517090 1858.116699,2411.330566 
	C1877.222656,2385.458740 1910.109863,2385.912598 1928.838501,2412.098145 
	C1936.576294,2422.916992 1938.805908,2435.135986 1938.820435,2448.019775 
	C1938.849854,2474.012207 1938.840698,2500.004883 1938.847412,2529.997559 
M3113.636963,2411.484863 
	C3118.198486,2407.606934 3123.222900,2404.154541 3127.243652,2399.779785 
	C3146.970459,2378.316162 3138.093506,2343.794434 3110.383789,2334.832520 
	C3104.212402,2332.836670 3097.319092,2332.395020 3090.756836,2332.386963 
	C2978.163086,2332.246582 2865.569092,2332.282227 2752.975098,2332.305908 
	C2748.983398,2332.306885 2744.896484,2332.079346 2741.016357,2332.814697 
	C2725.400879,2335.773438 2713.776855,2344.553467 2709.059082,2359.709717 
	C2704.202881,2375.310547 2707.011963,2390.034668 2719.579834,2401.861084 
	C2726.636719,2408.501953 2734.687500,2412.681885 2744.551514,2412.810303 
	C2749.880371,2412.879883 2755.209473,2412.951172 2760.538574,2412.951904 
	C2826.496094,2412.961914 2892.453369,2412.916260 2958.410889,2413.029541 
	C2964.616699,2413.040283 2971.243652,2411.543945 2976.528076,2414.526855 
	C2976.871826,2416.737549 2977.295654,2417.769043 2977.028809,2417.998779 
	C2972.007812,2422.321289 2967.050293,2426.738037 2961.797363,2430.767578 
	C2891.514404,2484.680420 2821.189697,2538.538574 2750.870117,2592.403320 
	C2741.354004,2599.692627 2731.733154,2606.847900 2722.296875,2614.238770 
	C2708.032715,2625.410645 2703.991455,2640.684082 2708.627197,2657.188477 
	C2713.330811,2673.932617 2725.739502,2683.810059 2743.314209,2686.039795 
	C2749.226807,2686.789795 2755.277588,2686.582520 2761.265381,2686.583984 
	C2868.529541,2686.612061 2975.793701,2686.607178 3083.057861,2686.596924 
	C3088.386230,2686.596436 3093.842773,2687.183838 3099.010986,2686.242188 
	C3105.456787,2685.067871 3112.224121,2683.600830 3117.868896,2680.480469 
	C3133.128174,2672.044189 3139.674805,2656.185303 3136.668457,2637.816162 
	C3133.974121,2621.353760 3122.302002,2609.541748 3104.752441,2606.588623 
	C3097.592773,2605.383789 3090.175293,2605.407471 3082.874268,2605.398438 
	C3016.250488,2605.314697 2949.626953,2605.392578 2883.003418,2605.235352 
	C2878.877686,2605.225586 2873.483398,2607.643311 2870.572510,2600.635986 
	C2950.717773,2538.226074 3031.029785,2475.686523 3113.636963,2411.484863 
M3868.166260,2385.478760 
	C3876.353271,2404.982178 3890.893555,2413.587158 3912.127441,2413.098633 
	C3941.436768,2412.424805 3970.773438,2412.893311 4000.098389,2412.966797 
	C4006.609619,2412.983154 4013.119873,2413.393311 4019.553223,2413.619629 
	C4020.508545,2416.394043 4021.688721,2418.226074 4021.691650,2420.060547 
	C4021.786621,2480.033936 4021.785156,2540.007812 4021.687256,2599.981201 
	C4021.684082,2601.816406 4020.501709,2603.649658 4019.572998,2606.343018 
	C4013.781250,2606.593262 4007.935303,2607.047852 4002.088135,2607.063965 
	C3974.095947,2607.141357 3946.104004,2607.086670 3918.111816,2607.111328 
	C3912.781982,2607.115967 3907.426270,2606.961182 3902.126953,2607.406250 
	C3885.851318,2608.773438 3874.503906,2617.840820 3869.065674,2632.548584 
	C3863.702148,2647.054688 3865.480713,2661.440918 3876.437988,2673.655762 
	C3886.619629,2685.006104 3899.557373,2687.881592 3914.290771,2687.842773 
	C4012.928955,2687.582520 4111.567871,2687.713379 4210.206543,2687.687988 
	C4214.865234,2687.686768 4219.596191,2687.875488 4224.170410,2687.175537 
	C4242.753418,2684.332764 4256.555664,2669.502930 4258.517578,2650.700684 
	C4260.290039,2633.720459 4250.841797,2616.673096 4234.859863,2610.536133 
	C4228.248047,2607.997070 4220.604980,2607.335693 4213.414062,2607.249512 
	C4184.093262,2606.898438 4154.766113,2607.100342 4125.440918,2607.098633 
	C4118.810059,2607.098389 4112.179199,2607.098633 4104.984375,2607.098633 
	C4104.430664,2602.260742 4103.605469,2598.378906 4103.600098,2594.496338 
	C4103.518555,2537.845703 4103.513672,2481.195312 4103.622070,2424.544922 
	C4103.629395,2420.874756 4104.705566,2417.206787 4105.379883,2412.935303 
	C4122.472656,2412.935303 4138.445312,2412.951660 4154.417480,2412.931885 
	C4176.410645,2412.904541 4198.423340,2413.417725 4220.390625,2412.645264 
	C4242.014160,2411.885498 4258.161133,2395.351807 4258.563965,2374.084717 
	C4258.908691,2355.906982 4249.083984,2336.667969 4223.176270,2332.708252 
	C4217.954102,2331.909912 4212.533691,2332.316406 4207.204590,2332.315674 
	C4110.565430,2332.297852 4013.926025,2332.297363 3917.286865,2332.318115 
	C3911.958740,2332.319336 3906.552979,2331.995605 3901.316406,2332.749023 
	C3880.204346,2335.786621 3867.181152,2352.875732 3866.783691,2368.620605 
	C3866.666748,2373.249512 3867.274658,2377.896240 3868.166260,2385.478760 
M3487.768311,2673.564209 
	C3490.681641,2666.871338 3493.926514,2660.301270 3496.452637,2653.465332 
	C3509.822266,2617.284668 3522.719238,2580.926758 3536.352783,2544.846924 
	C3547.631836,2514.997803 3559.229736,2485.247803 3571.649658,2455.861084 
	C3577.053711,2443.075439 3583.872803,2430.614746 3591.807373,2419.232178 
	C3606.129150,2398.687256 3621.854248,2398.929443 3636.521484,2418.699707 
	C3638.104492,2420.833008 3639.557373,2423.087646 3640.845703,2425.410889 
	C3646.324219,2435.289795 3652.672119,2444.821777 3656.961182,2455.200195 
	C3668.893311,2484.073486 3680.017334,2513.282471 3691.271729,2542.431641 
	C3692.398682,2545.350586 3692.238281,2548.766357 3692.786865,2552.765137 
	C3687.400635,2553.142822 3682.835449,2553.719238 3678.267822,2553.739746 
	C3656.283936,2553.838135 3634.298828,2553.696777 3612.315674,2553.847412 
	C3606.348145,2553.888428 3600.253906,2554.006104 3594.443115,2555.192139 
	C3565.211426,2561.158203 3553.100342,2596.630371 3572.231689,2619.497803 
	C3581.469727,2630.540039 3593.385742,2634.990723 3607.504639,2634.940430 
	C3639.481201,2634.826416 3671.458496,2634.910400 3703.435547,2634.913818 
	C3710.035889,2634.914307 3716.635986,2634.913818 3722.236084,2634.913818 
	C3724.059326,2637.218750 3725.180420,2638.136963 3725.651367,2639.315186 
	C3727.870117,2644.868408 3729.686768,2650.590332 3732.071777,2656.067139 
	C3734.982422,2662.750732 3737.777832,2669.579590 3741.568604,2675.766113 
	C3752.621094,2693.805176 3772.526367,2697.270752 3788.688965,2693.782471 
	C3810.659912,2689.040283 3823.037354,2668.763184 3817.387207,2646.896484 
	C3815.729492,2640.480957 3813.261230,2634.253418 3810.874268,2628.051758 
	C3797.735596,2593.916260 3784.685547,2559.744629 3771.261475,2525.721191 
	C3756.375977,2487.993896 3743.123535,2449.545166 3724.368896,2413.471924 
	C3714.564209,2394.613525 3703.910645,2376.149902 3692.750977,2358.056885 
	C3683.044922,2342.320557 3668.785400,2331.356445 3651.536133,2324.647217 
	C3607.251709,2307.421875 3560.152344,2322.311035 3533.883789,2361.840820 
	C3528.733154,2369.591797 3524.068848,2377.677979 3519.420410,2385.747803 
	C3504.114746,2412.320312 3491.223145,2440.088379 3480.024414,2468.582520 
	C3458.130615,2524.289307 3436.678467,2580.169922 3415.250000,2636.057617 
	C3412.898926,2642.188965 3410.886230,2648.771484 3410.461182,2655.258789 
	C3409.244385,2673.828125 3420.692871,2689.115479 3438.902588,2693.378662 
	C3458.231689,2697.904053 3474.446533,2692.836426 3487.768311,2673.564209 
M2508.645996,2333.088135 
	C2506.353760,2331.729004 2504.140869,2330.208008 2501.757324,2329.034180 
	C2453.389404,2305.213135 2401.834473,2319.407227 2372.649170,2364.760742 
	C2366.532227,2374.266113 2360.934814,2384.125977 2355.478027,2394.031982 
	C2340.366699,2421.464355 2327.736328,2450.066162 2316.354248,2479.207520 
	C2296.510010,2530.013916 2276.833984,2580.886719 2257.279297,2631.804932 
	C2254.679199,2638.574707 2252.247559,2645.657715 2251.370605,2652.795898 
	C2248.291748,2677.858887 2267.766113,2695.267090 2290.870850,2694.952393 
	C2305.794434,2694.749023 2318.294189,2689.306152 2326.385742,2676.330322 
	C2330.224609,2670.174561 2333.424316,2663.485596 2335.978271,2656.687012 
	C2345.569336,2631.158203 2354.573242,2605.408691 2364.171387,2579.882568 
	C2378.684814,2541.285645 2392.939209,2502.573486 2408.479004,2464.388428 
	C2414.953613,2448.478516 2423.216309,2432.959473 2432.867920,2418.759521 
	C2446.742676,2398.346436 2463.250732,2398.842529 2477.384521,2419.301514 
	C2484.908447,2430.192139 2491.826416,2441.822998 2496.940918,2453.992676 
	C2509.300537,2483.402588 2520.496338,2513.303467 2531.979980,2543.076172 
	C2533.053223,2545.858887 2532.836426,2549.139160 2533.322510,2553.017334 
	C2526.900635,2553.307617 2521.646484,2553.729736 2516.390381,2553.750244 
	C2495.734863,2553.830811 2475.078125,2553.710449 2454.422852,2553.833252 
	C2448.447021,2553.868652 2442.391357,2553.955078 2436.516113,2554.906494 
	C2420.468262,2557.504639 2409.989258,2567.385010 2405.401367,2582.467285 
	C2401.066162,2596.718994 2403.964111,2610.061279 2414.499512,2621.372314 
	C2423.806152,2631.364014 2435.364502,2634.987305 2448.640869,2634.940674 
	C2480.623779,2634.828125 2512.607666,2634.877930 2544.591064,2634.939941 
	C2551.137939,2634.952637 2557.684326,2635.303955 2564.810547,2635.516357 
	C2567.638672,2643.035645 2569.986816,2649.890381 2572.790039,2656.553711 
	C2575.361328,2662.665039 2578.000000,2668.818604 2581.346436,2674.520508 
	C2592.587402,2693.674805 2613.067871,2697.485107 2629.808105,2693.645020 
	C2651.648926,2688.635010 2663.872314,2668.124512 2658.110107,2646.389404 
	C2656.921631,2641.906738 2655.025146,2637.603760 2653.349121,2633.258789 
	C2632.760254,2579.885986 2612.379150,2526.431641 2591.469727,2473.184570 
	C2577.105469,2436.604492 2560.819824,2400.894287 2539.907959,2367.471436 
	C2532.080322,2354.960938 2523.316406,2343.303711 2508.645996,2333.088135 
M3224.026367,2479.934082 
	C3218.970947,2481.349365 3213.428955,2481.883057 3208.955566,2484.352539 
	C3197.561523,2490.644043 3191.616211,2500.789551 3192.405518,2513.932617 
	C3193.192627,2527.031982 3200.139893,2536.610596 3212.206787,2541.468262 
	C3217.540527,2543.614990 3223.815918,2544.107422 3229.673340,2544.153809 
	C3260.922852,2544.401855 3292.175537,2544.275146 3323.427002,2544.265137 
	C3326.085693,2544.264160 3328.763428,2544.354736 3331.399902,2544.085205 
	C3348.543945,2542.330811 3360.618164,2529.052734 3360.602783,2512.081543 
	C3360.587402,2495.172363 3348.483643,2481.819092 3331.330322,2480.105469 
	C3326.717529,2479.644531 3322.029297,2479.896729 3317.375732,2479.895020 
	C3287.454102,2479.884521 3257.532471,2479.894287 3224.026367,2479.934082 
z"/>
<path fill="#0F0F0F" opacity="1.000000" stroke="none" 
	d="
M911.855347,2580.448730 
	C915.840881,2580.087158 919.400879,2579.392334 922.603760,2576.239014 
	C933.992188,2565.027100 945.746826,2554.187012 957.631592,2542.951904 
	C948.679688,2527.291260 934.324524,2518.880127 924.713623,2505.167480 
	C933.718018,2495.788818 942.856873,2486.270264 951.536621,2477.229736 
	C951.265320,2470.884766 946.811035,2468.481934 943.723511,2465.332520 
	C931.130371,2452.487305 918.202759,2439.969727 905.646362,2427.089355 
	C901.173523,2422.501221 896.418335,2420.239502 889.830811,2420.313477 
	C863.853577,2420.606445 837.871155,2420.433594 810.865051,2420.433594 
	C807.892822,2423.632568 804.738220,2427.929688 800.728455,2431.167969 
	C790.417603,2439.494385 775.407104,2438.380371 766.167725,2429.102539 
	C756.492249,2419.386719 756.237427,2402.827148 765.611694,2392.958252 
	C775.117859,2382.950684 788.869263,2381.574463 799.981628,2389.864502 
	C804.199280,2393.010986 807.885864,2396.869141 814.074219,2402.435547 
	C821.632568,2402.567871 832.235291,2402.780762 842.838745,2402.933350 
	C859.501892,2403.172852 876.192139,2404.024902 892.819275,2403.348389 
	C903.199097,2402.926025 910.390076,2406.547119 917.226379,2413.925293 
	C928.995667,2426.627441 941.507507,2438.645996 953.831177,2450.826416 
	C957.555603,2454.507812 961.687988,2457.776123 965.856628,2461.429199 
	C973.626648,2457.211426 978.360840,2450.943359 984.083862,2445.030029 
	C982.437378,2437.555664 976.191284,2434.198975 971.873779,2429.502686 
	C966.916382,2424.110352 961.574341,2419.071289 956.394775,2413.883301 
	C951.685303,2409.165771 946.971924,2404.452148 942.256165,2399.740967 
	C937.069336,2394.558838 931.906372,2389.352539 926.679993,2384.210693 
	C921.959290,2379.566406 917.166992,2374.995117 912.465515,2370.448730 
	C907.384949,2370.791016 902.741699,2371.710205 898.220337,2371.296631 
	C883.770691,2369.974854 873.490662,2358.388916 873.893921,2344.501953 
	C874.307068,2330.273193 885.348450,2319.459473 899.627686,2319.298340 
	C914.012085,2319.135986 924.719849,2328.893555 925.965759,2343.799561 
	C926.290894,2347.689453 925.298401,2351.689453 924.919434,2355.553467 
	C934.703125,2368.332031 984.233582,2418.049805 998.512146,2429.322510 
	C1005.684814,2424.872070 1011.266235,2418.684082 1016.300659,2412.126709 
	C1005.798279,2398.358398 931.033142,2322.774414 904.408203,2298.895996 
	C901.076721,2299.138428 897.148804,2299.773682 893.245667,2299.646729 
	C877.295898,2299.127441 866.533447,2288.367188 866.602600,2273.291260 
	C866.668579,2258.911621 877.339600,2247.896729 891.581970,2247.506836 
	C906.488953,2247.098633 918.030701,2257.905029 918.796997,2273.471924 
	C918.986511,2277.322021 917.788269,2281.240723 917.511658,2283.159668 
	C955.772278,2321.457275 992.923401,2358.644043 1031.070801,2396.828369 
	C1037.674316,2393.415771 1042.713379,2386.711182 1049.239258,2379.524414 
	C1045.799561,2375.628906 1043.022217,2372.140625 1039.896118,2368.999023 
	C1020.619141,2349.627930 1001.522827,2330.064697 981.798035,2311.158447 
	C974.588135,2304.247803 970.571106,2296.877686 970.112549,2286.893311 
	C969.686096,2277.608154 968.054810,2268.378662 966.991272,2259.438477 
	C954.519287,2247.076660 942.261047,2234.926514 928.591003,2221.376953 
	C924.154785,2221.376953 917.383240,2222.593506 911.238403,2221.147217 
	C893.288330,2216.922363 885.709839,2196.547607 895.907776,2181.658936 
	C902.149109,2172.546631 912.730774,2168.567871 923.996521,2171.161377 
	C935.001587,2173.694824 941.103516,2181.251709 943.319702,2191.710449 
	C944.393982,2196.780518 943.505310,2202.266357 943.505310,2209.786133 
	C952.510925,2218.802246 962.566772,2229.376221 973.197815,2239.336182 
	C980.330627,2246.018555 984.914124,2253.119385 985.059082,2263.416748 
	C985.189575,2272.683105 987.206604,2281.922607 988.201233,2289.687988 
	C1013.440674,2314.970703 1037.841919,2339.413818 1063.160767,2364.776123 
	C1066.202515,2362.187744 1070.250488,2359.053223 1073.925903,2355.530029 
	C1077.730713,2351.883057 1081.173706,2347.858398 1085.468872,2343.255127 
	C1081.773438,2334.920898 1074.521240,2330.008789 1068.848267,2323.877686 
	C1062.972046,2317.526855 1056.968872,2311.293213 1051.103516,2305.095459 
	C1044.928833,2305.369873 1039.666992,2306.244629 1034.553589,2305.707520 
	C1020.689514,2304.251709 1011.481445,2293.834229 1011.363159,2280.276855 
	C1011.238220,2265.946289 1021.722290,2254.734863 1035.950073,2253.984619 
	C1048.999390,2253.296631 1060.891846,2262.459473 1063.084839,2275.632568 
	C1063.937866,2280.756104 1063.224243,2286.140381 1063.224243,2292.920654 
	C1074.382324,2303.247070 1086.540649,2314.499512 1100.445923,2327.368408 
	C1115.874756,2327.946533 1134.331055,2328.637939 1154.694092,2329.400879 
	C1153.190796,2325.815918 1152.788330,2323.287598 1151.349365,2321.697021 
	C1145.249390,2314.953613 1138.841431,2308.488770 1130.507812,2299.796143 
	C1150.591187,2298.235352 1167.726562,2296.903809 1185.271973,2295.540283 
	C1195.089233,2304.939697 1204.616089,2314.060791 1215.008301,2324.010498 
	C1225.593384,2315.606689 1234.296143,2305.575928 1243.773560,2296.412354 
	C1252.875977,2287.611816 1261.873657,2278.702393 1271.040039,2269.720947 
	C1273.646851,2254.337402 1272.248901,2239.002930 1272.670898,2223.772217 
	C1273.075806,2209.155518 1272.758301,2194.518799 1272.758301,2179.537354 
	C1269.008545,2175.975098 1264.683472,2172.768555 1261.505127,2168.672119 
	C1253.148682,2157.900879 1254.612915,2143.819580 1264.533813,2134.298096 
	C1274.526123,2124.708252 1290.698853,2124.846436 1300.617676,2134.606689 
	C1310.028809,2143.867432 1311.204590,2158.611816 1302.885620,2169.110352 
	C1300.056274,2172.681152 1296.090210,2175.351074 1291.583984,2179.379883 
	C1291.091187,2196.902344 1290.560547,2215.506836 1290.047852,2234.111572 
	C1289.809082,2242.773926 1289.012695,2251.473389 1289.535522,2260.091309 
	C1290.190674,2270.885742 1286.885376,2278.992920 1278.692871,2286.455566 
	C1264.417725,2299.458740 1251.130615,2313.553467 1237.564209,2327.323242 
	C1234.374023,2330.561279 1231.722046,2334.329834 1228.684570,2338.021973 
	C1234.827759,2344.201172 1240.380249,2349.786377 1245.652344,2355.089355 
	C1247.714233,2354.403320 1249.311646,2354.355713 1250.120361,2353.532715 
	C1273.934082,2329.296875 1297.668945,2304.983887 1322.785889,2279.281738 
	C1322.586060,2276.799805 1321.659302,2272.230469 1321.958618,2267.743164 
	C1322.960205,2252.730713 1333.439697,2242.800537 1347.795898,2242.727295 
	C1362.244629,2242.653564 1373.377686,2253.131592 1373.997437,2267.387939 
	C1374.606201,2281.386719 1364.708984,2293.047119 1350.197632,2294.681152 
	C1345.719482,2295.185547 1341.065796,2294.131348 1338.217896,2293.919189 
	C1312.404175,2319.604736 1287.456665,2344.428467 1261.506958,2370.249512 
	C1265.651123,2376.464355 1271.933594,2381.856689 1278.077881,2387.257568 
	C1291.732056,2377.850586 1359.085815,2311.765381 1394.590454,2273.001221 
	C1394.590454,2267.413574 1393.507324,2260.692139 1394.831421,2254.484131 
	C1397.107178,2243.813965 1404.300415,2237.109131 1415.414185,2235.506836 
	C1426.244385,2233.945312 1435.167603,2237.344727 1441.405762,2246.605225 
	C1452.324219,2262.812744 1441.949341,2284.576416 1422.014648,2287.196045 
	C1419.424927,2287.536377 1416.716675,2287.044189 1414.069214,2286.854736 
	C1412.127930,2286.715576 1410.196045,2286.442383 1410.117065,2286.433594 
	C1371.025024,2325.474854 1332.920898,2363.529785 1294.046509,2402.353760 
	C1294.542603,2405.885498 1298.800903,2408.241455 1301.808105,2411.451660 
	C1304.458130,2414.280273 1307.382935,2416.851318 1310.996338,2420.311768 
	C1314.912964,2416.918213 1318.506958,2414.156982 1321.693237,2410.985840 
	C1342.482056,2390.298828 1363.311035,2369.648682 1383.830811,2348.696533 
	C1389.747070,2342.655518 1396.050781,2339.257568 1404.718140,2338.896973 
	C1414.658813,2338.483154 1424.537964,2336.587646 1435.578735,2335.192627 
	C1446.868164,2323.233887 1458.738647,2310.659668 1471.200806,2297.458740 
	C1471.200806,2293.400879 1470.772827,2288.095703 1471.284668,2282.882568 
	C1472.587646,2269.610107 1483.804321,2259.882812 1497.102783,2260.031250 
	C1510.887939,2260.185059 1522.604126,2271.521729 1523.214233,2285.296875 
	C1523.776978,2298.001953 1513.753418,2310.233398 1500.851440,2311.884766 
	C1495.660278,2312.549072 1490.312988,2311.993896 1483.492554,2311.993896 
	C1473.120361,2322.291992 1461.619751,2333.366943 1450.550537,2344.857666 
	C1445.637329,2349.958008 1440.256836,2352.620605 1433.155640,2353.161865 
	C1422.554321,2353.970703 1412.019531,2355.654053 1400.254517,2357.114502 
	C1375.467041,2381.776855 1350.139893,2407.207764 1324.496216,2433.019531 
	C1333.027344,2441.242920 1340.515869,2448.461426 1348.798706,2456.445801 
	C1356.705688,2451.807617 1362.058960,2444.042969 1368.814209,2437.945068 
	C1375.240967,2432.143311 1381.437256,2426.086182 1387.455566,2420.405273 
	C1387.455566,2414.172607 1387.124268,2408.918945 1387.518921,2403.720459 
	C1388.609497,2389.350830 1400.021362,2379.277344 1414.291626,2379.753418 
	C1427.354370,2380.189209 1438.317017,2390.559326 1439.548706,2403.644775 
	C1440.810425,2417.049561 1430.340454,2430.161865 1416.619019,2431.761963 
	C1411.397339,2432.371094 1406.045044,2431.861084 1400.733398,2431.861084 
	C1388.007446,2444.265625 1375.171265,2456.777832 1362.044189,2469.573486 
	C1371.100342,2483.574951 1385.271118,2492.197754 1394.491455,2505.642822 
	C1385.027954,2515.678955 1376.029175,2525.221924 1366.141846,2535.707520 
	C1378.210815,2547.862305 1390.348511,2558.339111 1400.330200,2570.574463 
	C1413.266846,2586.431641 1428.522095,2592.755371 1448.944336,2591.104736 
	C1468.138550,2589.553223 1487.556763,2590.772217 1508.494507,2590.772217 
	C1510.638672,2588.333496 1513.349854,2584.638672 1516.660278,2581.595703 
	C1527.993530,2571.177246 1544.297119,2571.627686 1554.243042,2582.383789 
	C1562.962646,2591.813477 1563.213501,2607.534668 1554.797607,2617.120605 
	C1545.107056,2628.158203 1528.608398,2629.142578 1517.211182,2619.071289 
	C1514.267700,2616.470215 1512.094971,2612.997314 1508.406738,2608.512695 
	C1477.653931,2608.155518 1445.782104,2607.785156 1413.612671,2607.411377 
	C1393.561768,2587.666260 1373.735962,2568.142822 1352.660400,2547.388672 
	C1346.398438,2554.238037 1341.062134,2560.074707 1335.052246,2566.648193 
	C1344.529419,2581.339111 1358.384888,2591.853516 1370.122559,2604.237549 
	C1381.573608,2616.319092 1393.489624,2627.960449 1405.171021,2639.764160 
	C1410.193237,2639.764160 1414.753540,2639.603271 1419.299072,2639.793701 
	C1434.262329,2640.420410 1444.667725,2650.540283 1445.132202,2664.760498 
	C1445.603882,2679.197021 1435.462769,2690.864014 1421.488892,2691.961182 
	C1407.691895,2693.044678 1395.468994,2683.439453 1393.341064,2669.120361 
	C1392.677979,2664.658447 1393.844360,2659.924561 1394.314453,2653.336426 
	C1371.210083,2629.724365 1346.600464,2605.529297 1322.209229,2580.970947 
	C1313.817627,2585.798096 1308.457764,2592.322510 1303.051147,2598.565674 
	C1313.620728,2613.138428 1376.133667,2676.697998 1414.645874,2712.201416 
	C1418.668823,2712.018555 1423.287476,2711.431641 1427.862915,2711.670654 
	C1441.808716,2712.398682 1451.825439,2722.203369 1452.638306,2735.525146 
	C1453.519287,2749.961914 1443.963379,2761.825928 1429.987915,2763.646484 
	C1417.327637,2765.295654 1404.397339,2756.747803 1401.531738,2743.743408 
	C1400.289062,2738.104248 1401.323242,2731.963867 1401.323242,2727.747803 
	C1363.303955,2689.680664 1326.164307,2652.494141 1288.079590,2614.361328 
	C1281.685059,2617.074951 1277.013184,2624.340332 1270.265625,2631.077393 
	C1273.008545,2634.494873 1275.151489,2637.716309 1277.826050,2640.409180 
	C1297.554077,2660.273438 1317.208130,2680.217529 1337.287354,2699.723145 
	C1344.308105,2706.543457 1348.954224,2713.559326 1349.116943,2723.843018 
	C1349.263550,2733.105957 1351.277222,2742.339844 1352.499023,2751.832031 
	C1364.717773,2763.719727 1377.065063,2775.732178 1390.817139,2789.111816 
	C1393.799438,2788.980713 1399.140625,2787.993164 1404.269653,2788.653320 
	C1425.132080,2791.337646 1434.997437,2814.740234 1422.231812,2830.927490 
	C1415.329834,2839.679688 1405.970093,2842.110596 1395.360718,2840.032471 
	C1385.752686,2838.150391 1377.420288,2829.466309 1376.084106,2819.446289 
	C1375.388672,2814.231689 1375.961548,2808.847900 1375.961548,2801.397217 
	C1366.432251,2791.845459 1355.822266,2780.889404 1344.835083,2770.325684 
	C1338.834229,2764.556396 1334.500610,2758.518555 1334.522949,2749.663086 
	C1334.537964,2743.718018 1332.541748,2737.772461 1332.507568,2731.821045 
	C1332.454346,2722.562988 1328.966797,2715.663086 1322.310059,2709.145264 
	C1300.893188,2688.176270 1280.046631,2666.624512 1258.667847,2644.980957 
	C1247.826050,2651.358887 1240.734619,2659.820801 1232.921265,2669.378906 
	C1245.005493,2681.572998 1256.617554,2693.290771 1268.745728,2705.529541 
	C1273.792480,2705.266602 1279.073853,2704.270996 1284.175659,2704.852539 
	C1304.278198,2707.143555 1314.716187,2728.669434 1304.005127,2745.158447 
	C1297.994263,2754.411865 1287.599731,2758.591309 1276.178345,2756.347656 
	C1265.856934,2754.319824 1257.258057,2745.107422 1256.145630,2734.183838 
	C1255.613281,2728.957275 1256.053955,2723.631592 1256.053955,2718.324463 
	C1244.754761,2707.077393 1233.452148,2695.826660 1220.965332,2683.397217 
	C1215.953613,2683.397217 1209.332642,2683.577148 1202.726196,2683.344238 
	C1196.736938,2683.132812 1190.767700,2682.402832 1184.781616,2682.029785 
	C1178.518311,2681.639160 1172.042480,2679.780273 1164.560791,2683.713867 
	C1170.890381,2694.519043 1181.077271,2700.301514 1186.694336,2709.584473 
	C1185.836182,2710.386230 1185.377319,2711.203857 1184.858032,2711.244141 
	C1168.286255,2712.532471 1151.708618,2713.745117 1134.023193,2715.051270 
	C1124.781006,2706.263672 1115.223755,2697.176514 1105.774414,2688.191895 
	C1093.195435,2695.765625 1073.187134,2714.880371 1047.522217,2743.810303 
	C1046.941528,2772.238525 1046.344482,2801.476562 1045.751831,2830.492188 
	C1049.797119,2834.163818 1053.581299,2836.927734 1056.532349,2840.399658 
	C1066.286499,2851.876709 1065.603394,2866.187744 1055.165527,2876.327148 
	C1044.789062,2886.406982 1029.603149,2886.573730 1019.180481,2876.722168 
	C1009.217102,2867.305176 1008.401306,2851.424805 1017.675964,2840.623291 
	C1020.645203,2837.165039 1024.485474,2834.454834 1028.129639,2831.223145 
	C1028.629150,2805.811523 1029.011963,2780.506104 1029.657837,2755.207275 
	C1030.240356,2732.392822 1028.928223,2736.942383 1043.579834,2722.178955 
	C1055.315430,2710.353516 1067.217285,2698.693359 1078.926025,2686.841797 
	C1082.608276,2683.114502 1085.903687,2679.004883 1089.744019,2674.653564 
	C1085.818359,2666.040771 1078.846313,2661.337891 1073.146240,2655.493896 
	C1070.176270,2657.167480 1068.189697,2657.792969 1066.880615,2659.098145 
	C1043.307373,2682.603760 1019.815796,2706.191406 996.916443,2729.150391 
	C996.916443,2734.658936 997.186157,2739.323730 996.866516,2743.947998 
	C995.859680,2758.516113 984.815552,2768.612305 970.515137,2768.289551 
	C957.358215,2767.992920 946.455139,2757.984375 944.891846,2744.769287 
	C943.337524,2731.630127 953.829407,2718.112793 967.483337,2716.335205 
	C972.689392,2715.657471 978.057556,2716.225098 983.688660,2716.225098 
	C1006.949036,2696.114746 1048.835815,2653.187988 1057.750488,2639.885498 
	C1052.436890,2634.605225 1046.919922,2629.122803 1041.580688,2623.817139 
	C1027.325195,2632.784668 968.091614,2690.634033 925.064209,2737.298584 
	C925.064209,2742.207275 925.475891,2747.480469 924.984253,2752.667969 
	C923.699829,2766.219482 912.906616,2775.907471 899.558228,2775.944580 
	C885.758972,2775.982910 873.956848,2764.886230 873.080811,2751.049805 
	C872.284241,2738.468018 882.275330,2725.896240 895.067017,2724.140869 
	C900.248962,2723.429932 905.609985,2724.023682 912.947083,2724.023682 
	C949.719666,2687.092529 987.930115,2649.184326 1025.896484,2610.835449 
	C1021.591614,2602.220947 1015.360352,2597.446289 1010.264221,2592.699951 
	C1004.463013,2591.479980 1002.202209,2595.239990 999.479492,2597.947266 
	C978.683777,2618.625000 957.697632,2639.119873 937.305847,2660.189697 
	C929.917664,2667.823242 922.226074,2672.979736 911.266907,2672.312744 
	C907.974854,2672.112305 904.633362,2672.870605 901.307129,2673.060547 
	C889.590393,2673.729248 879.745667,2677.312744 871.738037,2686.930420 
	C864.548889,2695.565430 855.457031,2702.616455 848.167908,2709.461182 
	C848.167908,2716.710205 848.577209,2721.987061 848.088928,2727.179443 
	C846.772888,2741.173828 834.262817,2751.873535 820.780762,2750.929443 
	C807.735413,2750.015869 796.960510,2739.252441 796.112732,2726.287842 
	C795.190491,2712.183594 805.169983,2700.401367 819.543152,2699.015869 
	C824.142029,2698.572510 828.819641,2698.946777 835.428833,2698.946777 
	C844.984985,2689.454590 856.194580,2679.020020 866.537537,2667.787354 
	C872.872681,2660.907227 880.094238,2657.347900 889.180603,2656.911621 
	C890.510681,2656.847900 891.865662,2656.414062 893.157288,2656.573242 
	C912.551086,2658.958740 925.475952,2648.705811 937.690735,2635.334717 
	C951.611938,2620.095215 966.812744,2606.027588 981.375671,2591.369629 
	C985.554321,2587.163818 989.450256,2582.677002 993.715515,2578.059570 
	C987.694763,2568.171875 979.834778,2561.327881 971.016296,2554.373291 
	C955.929749,2565.105957 944.964539,2579.383789 931.976013,2591.101562 
	C931.976013,2597.026367 932.392883,2602.324463 931.891541,2607.534668 
	C930.753357,2619.362549 922.143005,2628.518555 910.528076,2630.892090 
	C900.322754,2632.977539 889.118591,2627.658936 883.433411,2618.030029 
	C877.831726,2608.542236 878.519775,2596.772461 886.042542,2588.302246 
	C889.016052,2584.954102 893.480896,2582.930420 899.451843,2581.294922 
	C905.574524,2584.628662 909.018921,2584.228760 911.855347,2580.448730 
M1299.235596,2541.209473 
	C1310.579590,2529.329590 1323.106079,2518.532471 1334.401245,2504.702393 
	C1314.584717,2484.396729 1295.230225,2465.298828 1276.028442,2446.055908 
	C1256.749756,2426.735840 1237.586304,2407.297363 1218.091309,2388.197510 
	C1198.747803,2369.246094 1180.617188,2349.004639 1159.155640,2330.611328 
	C1102.050537,2387.872803 1045.728027,2444.332275 989.475281,2500.861084 
	C988.169678,2502.172852 987.649109,2504.265625 986.828674,2505.864746 
	C996.198059,2518.703613 1144.799683,2667.321289 1160.105347,2679.230957 
	C1160.732300,2679.178955 1161.612061,2679.378662 1161.950806,2679.039062 
	C1207.069824,2633.790283 1252.149292,2588.501953 1299.235596,2541.209473 
M785.886108,2422.030762 
	C788.631470,2420.318359 792.147827,2419.184570 793.959167,2416.771240 
	C797.561218,2411.971924 796.481750,2406.307617 792.271851,2402.523438 
	C788.295227,2398.948730 781.668457,2398.716797 777.635803,2402.010986 
	C773.495789,2405.392822 772.121338,2411.429443 775.382751,2416.232910 
	C777.054382,2418.695068 780.459900,2419.980225 785.886108,2422.030762 
M1032.761841,2290.460693 
	C1036.643188,2291.994385 1040.332153,2291.837402 1043.728760,2289.195312 
	C1048.147583,2285.758301 1049.916626,2280.071045 1047.572266,2275.456055 
	C1045.391113,2271.162842 1041.863037,2268.449219 1036.751221,2268.683105 
	C1031.683838,2268.915039 1026.460327,2273.179688 1026.465332,2278.488525 
	C1026.468506,2281.937256 1028.976807,2285.383789 1032.761841,2290.460693 
M885.784668,2264.403320 
	C884.318726,2267.289551 881.835327,2270.097168 881.605164,2273.078857 
	C881.166260,2278.763916 885.517456,2283.361572 890.757935,2284.246826 
	C896.222656,2285.169678 901.605225,2282.103027 903.454163,2277.012939 
	C905.260742,2272.039795 903.288269,2266.371826 897.782654,2263.808838 
	C895.113708,2262.566162 891.507446,2263.336670 885.784668,2264.403320 
M910.769653,2340.398193 
	C908.952148,2338.597412 907.436157,2336.184814 905.259766,2335.112061 
	C899.122437,2332.087402 893.881714,2333.869385 890.361633,2339.555176 
	C887.533447,2344.123535 888.626160,2349.858398 893.027771,2353.546631 
	C897.681335,2357.445801 904.209717,2357.183594 908.554993,2352.060059 
	C910.432129,2349.846680 910.655884,2346.231201 910.769653,2340.398193 
M1339.292480,2275.469971 
	C1341.776001,2278.941895 1345.230469,2280.538330 1349.388794,2280.048828 
	C1354.691284,2279.425049 1359.134155,2274.878174 1359.713989,2269.932129 
	C1360.283691,2265.071045 1356.775513,2260.072754 1351.436279,2258.068604 
	C1346.364014,2256.164795 1342.487549,2258.409180 1339.444214,2262.032959 
	C1336.833618,2265.141602 1335.905151,2268.932617 1339.292480,2275.469971 
M1418.487671,2250.158936 
	C1416.225464,2251.322266 1413.358643,2251.962158 1411.813599,2253.746582 
	C1407.079590,2259.213379 1407.352295,2264.738037 1411.920898,2269.250732 
	C1416.215820,2273.492920 1423.208618,2273.547852 1427.614990,2269.373535 
	C1432.298706,2264.936279 1432.640625,2259.538574 1427.935547,2253.889404 
	C1426.424683,2252.075439 1423.579468,2251.373291 1418.487671,2250.158936 
M1524.273438,2604.648682 
	C1526.009033,2606.505371 1527.410400,2609.041992 1529.543335,2610.090088 
	C1535.772339,2613.151367 1541.288696,2611.282227 1544.351562,2605.713867 
	C1547.008423,2600.883545 1546.054199,2595.360352 1541.920654,2591.642578 
	C1537.265869,2587.456055 1530.973755,2587.570312 1526.487915,2592.817871 
	C1524.621338,2595.001465 1524.505371,2598.681641 1524.273438,2604.648682 
M907.683594,2200.811523 
	C908.923401,2202.302246 909.874146,2204.310303 911.453857,2205.192383 
	C917.725586,2208.694580 923.517212,2207.530273 926.866150,2202.487549 
	C930.273193,2197.356934 928.910828,2190.492676 923.766296,2186.868408 
	C918.500671,2183.158691 912.871704,2184.161377 908.587158,2190.240723 
	C907.218689,2192.182373 907.370789,2195.195312 907.683594,2200.811523 
M909.059814,2743.901367 
	C906.838074,2740.092041 903.296326,2738.616943 899.141541,2738.829834 
	C893.348389,2739.126465 889.057068,2743.160889 888.434814,2748.464600 
	C887.920959,2752.844482 890.736450,2757.806152 894.804443,2759.690430 
	C899.590271,2761.906494 905.624390,2760.645996 908.568359,2755.855957 
	C910.117981,2753.334473 909.968018,2749.768066 909.059814,2743.901367 
M833.146667,2723.011719 
	C831.966187,2720.783203 831.312805,2717.894531 829.505310,2716.451416 
	C824.238342,2712.244873 817.797058,2712.963135 813.969604,2717.554199 
	C810.752686,2721.412842 810.835510,2728.041992 814.149841,2731.973633 
	C818.094238,2736.653076 824.350952,2737.252686 829.637207,2732.842041 
	C831.440857,2731.336914 832.095337,2728.454590 833.146667,2723.011719 
M1293.217163,2153.450684 
	C1292.988403,2149.236816 1291.455688,2145.810791 1287.490356,2143.799561 
	C1282.783081,2141.412354 1278.510132,2142.311523 1274.704468,2145.649170 
	C1271.318604,2148.618408 1270.552002,2153.987305 1272.650269,2158.378418 
	C1274.698853,2162.665771 1278.908569,2164.835693 1284.143311,2164.134277 
	C1288.509644,2163.549072 1291.138794,2160.815186 1293.217163,2153.450684 
M977.661804,2733.035889 
	C973.848083,2732.851562 969.774292,2731.736816 966.284851,2732.712402 
	C961.669250,2734.002686 959.423157,2739.298340 960.282349,2743.902344 
	C961.073425,2748.141602 963.614563,2751.009521 967.665771,2752.397217 
	C972.272095,2753.975342 977.286438,2752.416016 980.005859,2748.585449 
	C983.041748,2744.309326 982.789185,2739.963867 977.661804,2733.035889 
M1426.647705,2748.422119 
	C1429.516479,2747.066650 1433.216553,2746.414795 1435.082153,2744.210449 
	C1439.015747,2739.562012 1438.349731,2733.749512 1434.536255,2729.879150 
	C1430.958740,2726.248291 1424.371094,2725.799561 1419.959839,2728.886963 
	C1415.735107,2731.843750 1414.430786,2737.384521 1417.408447,2743.012207 
	C1418.516602,2745.106689 1421.277710,2746.326172 1426.647705,2748.422119 
M1410.705933,2808.083740 
	C1408.529663,2806.698242 1406.490967,2804.464844 1404.151489,2804.085449 
	C1397.008179,2802.926270 1392.234619,2806.457764 1391.189209,2812.864258 
	C1390.245728,2818.645752 1393.308960,2823.623047 1398.704346,2825.075195 
	C1404.720947,2826.694824 1409.858154,2823.841797 1412.278564,2817.069580 
	C1412.893555,2815.348877 1412.232666,2813.172363 1410.705933,2808.083740 
M1046.260132,2851.270508 
	C1043.406982,2849.794434 1040.684204,2847.507812 1037.671631,2847.022705 
	C1032.536377,2846.196533 1028.822754,2849.019531 1026.909180,2853.886475 
	C1024.969849,2858.818359 1027.326050,2865.192871 1032.106323,2867.348877 
	C1036.699097,2869.420166 1041.141968,2868.939941 1044.906860,2865.316650 
	C1048.071289,2862.270508 1048.551147,2858.439941 1046.260132,2851.270508 
M1271.654175,2734.231201 
	C1273.879272,2736.515381 1275.727051,2739.534912 1278.416260,2740.914551 
	C1282.634033,2743.078613 1288.140625,2741.202393 1290.844360,2737.738281 
	C1293.985352,2733.713867 1293.542603,2727.079834 1289.870483,2723.146729 
	C1286.648071,2719.695312 1281.760986,2718.879150 1277.160889,2721.144775 
	C1273.195068,2723.097168 1271.618286,2726.583252 1271.654175,2734.231201 
M1428.062988,2659.499023 
	C1425.456421,2655.852539 1421.753906,2654.885986 1417.585083,2655.475586 
	C1412.486938,2656.197021 1408.992065,2659.612305 1408.248169,2664.285400 
	C1407.508423,2668.931152 1410.021362,2673.853516 1414.332886,2675.622314 
	C1418.941528,2677.512939 1423.476685,2677.411377 1427.048340,2673.475586 
	C1429.812256,2670.429932 1431.399902,2666.848145 1428.062988,2659.499023 
M917.036743,2605.209717 
	C915.706055,2602.322021 915.072205,2598.655029 912.898010,2596.710449 
	C908.521240,2592.796631 902.685913,2593.477295 898.606689,2597.318848 
	C895.308777,2600.424561 894.466858,2605.657715 896.552734,2610.087158 
	C898.845276,2614.955811 904.445740,2617.660889 909.851196,2615.379395 
	C912.542786,2614.243164 914.317749,2610.935059 917.036743,2605.209717 
M1404.423096,2412.412354 
	C1407.063721,2415.906494 1410.629272,2417.185303 1414.854736,2416.516113 
	C1420.683960,2415.593262 1424.369873,2411.245850 1424.243896,2405.662354 
	C1424.118652,2400.112305 1420.082886,2395.844482 1414.356689,2395.206299 
	C1407.087891,2394.396240 1404.337036,2397.784668 1404.423096,2412.412354 
M1503.644287,2294.958008 
	C1505.120850,2292.113037 1507.626953,2289.348877 1507.857910,2286.406250 
	C1508.328613,2280.411377 1504.400513,2276.384033 1498.687622,2275.487305 
	C1493.520020,2274.676270 1489.531494,2276.729980 1487.354004,2281.323486 
	C1484.941040,2286.413818 1486.028564,2292.292236 1491.005249,2295.158447 
	C1493.562744,2296.631592 1497.301758,2296.052979 1503.644287,2294.958008 
z"/>
<path fill="#030303" opacity="1.000000" stroke="none" 
	d="
M1938.847412,2527.997559 
	C1938.840698,2500.004883 1938.849854,2474.012207 1938.820435,2448.019775 
	C1938.805908,2435.135986 1936.576294,2422.916992 1928.838501,2412.098145 
	C1910.109863,2385.912598 1877.222656,2385.458740 1858.116699,2411.330566 
	C1852.071289,2419.517090 1848.103271,2428.611328 1847.767456,2438.967529 
	C1847.551514,2445.626221 1847.442261,2452.291260 1847.439575,2458.953613 
	C1847.415161,2520.269287 1847.510620,2581.585205 1847.318726,2642.900391 
	C1847.293945,2650.808350 1846.838989,2658.976562 1844.838623,2666.564209 
	C1839.971924,2685.024414 1822.815186,2696.423340 1804.120483,2694.739502 
	C1784.183716,2692.943604 1768.730347,2678.180420 1767.017578,2659.171143 
	C1766.719360,2655.861328 1766.801636,2652.512207 1766.801147,2649.181396 
	C1766.791504,2580.534424 1766.655762,2511.887207 1766.942749,2443.241455 
	C1766.987061,2432.664307 1767.686279,2421.760254 1770.307373,2411.580322 
	C1781.483398,2368.174072 1810.257202,2340.282471 1851.064453,2324.279297 
	C1886.874146,2310.235596 1921.682373,2314.580811 1955.003418,2332.774170 
	C1963.149292,2337.221680 1970.692261,2342.773682 1979.724121,2348.599609 
	C1982.734375,2346.730713 1986.620117,2344.527100 1990.285889,2342.004150 
	C2002.424072,2333.651123 2015.385742,2327.112793 2029.363037,2322.278076 
	C2100.051270,2297.826904 2177.015625,2350.344971 2189.683105,2412.280518 
	C2191.403809,2420.694092 2192.195068,2429.439453 2192.220459,2438.034912 
	C2192.426514,2508.014404 2192.354980,2577.994385 2192.336670,2647.974365 
	C2192.335693,2651.968018 2192.399658,2656.007568 2191.861816,2659.947754 
	C2188.978516,2681.078613 2171.032227,2695.974609 2150.047607,2694.851318 
	C2128.886475,2693.718506 2112.561035,2677.491211 2111.528564,2656.393311 
	C2111.268066,2651.073486 2111.456787,2645.731445 2111.456543,2640.399658 
	C2111.452881,2579.083984 2111.459961,2517.768311 2111.440674,2456.452637 
	C2111.438721,2450.456299 2111.643311,2444.427979 2111.120850,2438.469971 
	C2109.974609,2425.404297 2104.756348,2414.086426 2095.309570,2404.876465 
	C2077.894531,2387.898438 2053.690186,2387.886963 2036.320557,2404.958984 
	C2026.969116,2414.150146 2021.449829,2425.365967 2020.311768,2438.473633 
	C2019.794312,2444.433594 2019.926147,2450.458008 2019.923828,2456.453369 
	C2019.900024,2519.102051 2020.006714,2581.750977 2019.784790,2644.398926 
	C2019.756836,2652.278076 2019.172607,2660.495605 2016.890747,2667.958496 
	C2011.400635,2685.913818 1993.259521,2696.921143 1974.982300,2694.610107 
	C1954.836670,2692.062744 1940.385376,2677.419678 1939.011719,2657.957031 
	C1938.683960,2653.312500 1938.855225,2648.630371 1938.854004,2643.965576 
	C1938.844116,2605.976318 1938.847778,2567.986816 1938.847412,2527.997559 
z"/>
<path fill="#050505" opacity="1.000000" stroke="none" 
	d="
M3112.489258,2412.315918 
	C3031.029785,2475.686523 2950.717773,2538.226074 2870.572510,2600.635986 
	C2873.483398,2607.643311 2878.877686,2605.225586 2883.003418,2605.235352 
	C2949.626953,2605.392578 3016.250488,2605.314697 3082.874268,2605.398438 
	C3090.175293,2605.407471 3097.592773,2605.383789 3104.752441,2606.588623 
	C3122.302002,2609.541748 3133.974121,2621.353760 3136.668457,2637.816162 
	C3139.674805,2656.185303 3133.128174,2672.044189 3117.868896,2680.480469 
	C3112.224121,2683.600830 3105.456787,2685.067871 3099.010986,2686.242188 
	C3093.842773,2687.183838 3088.386230,2686.596436 3083.057861,2686.596924 
	C2975.793701,2686.607178 2868.529541,2686.612061 2761.265381,2686.583984 
	C2755.277588,2686.582520 2749.226807,2686.789795 2743.314209,2686.039795 
	C2725.739502,2683.810059 2713.330811,2673.932617 2708.627197,2657.188477 
	C2703.991455,2640.684082 2708.032715,2625.410645 2722.296875,2614.238770 
	C2731.733154,2606.847900 2741.354004,2599.692627 2750.870117,2592.403320 
	C2821.189697,2538.538574 2891.514404,2484.680420 2961.797363,2430.767578 
	C2967.050293,2426.738037 2972.007812,2422.321289 2977.028809,2417.998779 
	C2977.295654,2417.769043 2976.871826,2416.737549 2976.528076,2414.526855 
	C2971.243652,2411.543945 2964.616699,2413.040283 2958.410889,2413.029541 
	C2892.453369,2412.916260 2826.496094,2412.961914 2760.538574,2412.951904 
	C2755.209473,2412.951172 2749.880371,2412.879883 2744.551514,2412.810303 
	C2734.687500,2412.681885 2726.636719,2408.501953 2719.579834,2401.861084 
	C2707.011963,2390.034668 2704.202881,2375.310547 2709.059082,2359.709717 
	C2713.776855,2344.553467 2725.400879,2335.773438 2741.016357,2332.814697 
	C2744.896484,2332.079346 2748.983398,2332.306885 2752.975098,2332.305908 
	C2865.569092,2332.282227 2978.163086,2332.246582 3090.756836,2332.386963 
	C3097.319092,2332.395020 3104.212402,2332.836670 3110.383789,2334.832520 
	C3138.093506,2343.794434 3146.970459,2378.316162 3127.243652,2399.779785 
	C3123.222900,2404.154541 3118.198486,2407.606934 3112.489258,2412.315918 
z"/>
<path fill="#030303" opacity="1.000000" stroke="none" 
	d="
M3867.858398,2384.006836 
	C3867.274658,2377.896240 3866.666748,2373.249512 3866.783691,2368.620605 
	C3867.181152,2352.875732 3880.204346,2335.786621 3901.316406,2332.749023 
	C3906.552979,2331.995605 3911.958740,2332.319336 3917.286865,2332.318115 
	C4013.926025,2332.297363 4110.565430,2332.297852 4207.204590,2332.315674 
	C4212.533691,2332.316406 4217.954102,2331.909912 4223.176270,2332.708252 
	C4249.083984,2336.667969 4258.908691,2355.906982 4258.563965,2374.084717 
	C4258.161133,2395.351807 4242.014160,2411.885498 4220.390625,2412.645264 
	C4198.423340,2413.417725 4176.410645,2412.904541 4154.417480,2412.931885 
	C4138.445312,2412.951660 4122.472656,2412.935303 4105.379883,2412.935303 
	C4104.705566,2417.206787 4103.629395,2420.874756 4103.622070,2424.544922 
	C4103.513672,2481.195312 4103.518555,2537.845703 4103.600098,2594.496338 
	C4103.605469,2598.378906 4104.430664,2602.260742 4104.984375,2607.098633 
	C4112.179199,2607.098633 4118.810059,2607.098389 4125.440918,2607.098633 
	C4154.766113,2607.100342 4184.093262,2606.898438 4213.414062,2607.249512 
	C4220.604980,2607.335693 4228.248047,2607.997070 4234.859863,2610.536133 
	C4250.841797,2616.673096 4260.290039,2633.720459 4258.517578,2650.700684 
	C4256.555664,2669.502930 4242.753418,2684.332764 4224.170410,2687.175537 
	C4219.596191,2687.875488 4214.865234,2687.686768 4210.206543,2687.687988 
	C4111.567871,2687.713379 4012.928955,2687.582520 3914.290771,2687.842773 
	C3899.557373,2687.881592 3886.619629,2685.006104 3876.437988,2673.655762 
	C3865.480713,2661.440918 3863.702148,2647.054688 3869.065674,2632.548584 
	C3874.503906,2617.840820 3885.851318,2608.773438 3902.126953,2607.406250 
	C3907.426270,2606.961182 3912.781982,2607.115967 3918.111816,2607.111328 
	C3946.104004,2607.086670 3974.095947,2607.141357 4002.088135,2607.063965 
	C4007.935303,2607.047852 4013.781250,2606.593262 4019.572998,2606.343018 
	C4020.501709,2603.649658 4021.684082,2601.816406 4021.687256,2599.981201 
	C4021.785156,2540.007812 4021.786621,2480.033936 4021.691650,2420.060547 
	C4021.688721,2418.226074 4020.508545,2416.394043 4019.553223,2413.619629 
	C4013.119873,2413.393311 4006.609619,2412.983154 4000.098389,2412.966797 
	C3970.773438,2412.893311 3941.436768,2412.424805 3912.127441,2413.098633 
	C3890.893555,2413.587158 3876.353271,2404.982178 3867.858398,2384.006836 
z"/>
<path fill="#050505" opacity="1.000000" stroke="none" 
	d="
M3486.937988,2674.774414 
	C3474.446533,2692.836426 3458.231689,2697.904053 3438.902588,2693.378662 
	C3420.692871,2689.115479 3409.244385,2673.828125 3410.461182,2655.258789 
	C3410.886230,2648.771484 3412.898926,2642.188965 3415.250000,2636.057617 
	C3436.678467,2580.169922 3458.130615,2524.289307 3480.024414,2468.582520 
	C3491.223145,2440.088379 3504.114746,2412.320312 3519.420410,2385.747803 
	C3524.068848,2377.677979 3528.733154,2369.591797 3533.883789,2361.840820 
	C3560.152344,2322.311035 3607.251709,2307.421875 3651.536133,2324.647217 
	C3668.785400,2331.356445 3683.044922,2342.320557 3692.750977,2358.056885 
	C3703.910645,2376.149902 3714.564209,2394.613525 3724.368896,2413.471924 
	C3743.123535,2449.545166 3756.375977,2487.993896 3771.261475,2525.721191 
	C3784.685547,2559.744629 3797.735596,2593.916260 3810.874268,2628.051758 
	C3813.261230,2634.253418 3815.729492,2640.480957 3817.387207,2646.896484 
	C3823.037354,2668.763184 3810.659912,2689.040283 3788.688965,2693.782471 
	C3772.526367,2697.270752 3752.621094,2693.805176 3741.568604,2675.766113 
	C3737.777832,2669.579590 3734.982422,2662.750732 3732.071777,2656.067139 
	C3729.686768,2650.590332 3727.870117,2644.868408 3725.651367,2639.315186 
	C3725.180420,2638.136963 3724.059326,2637.218750 3722.236084,2634.913818 
	C3716.635986,2634.913818 3710.035889,2634.914307 3703.435547,2634.913818 
	C3671.458496,2634.910400 3639.481201,2634.826416 3607.504639,2634.940430 
	C3593.385742,2634.990723 3581.469727,2630.540039 3572.231689,2619.497803 
	C3553.100342,2596.630371 3565.211426,2561.158203 3594.443115,2555.192139 
	C3600.253906,2554.006104 3606.348145,2553.888428 3612.315674,2553.847412 
	C3634.298828,2553.696777 3656.283936,2553.838135 3678.267822,2553.739746 
	C3682.835449,2553.719238 3687.400635,2553.142822 3692.786865,2552.765137 
	C3692.238281,2548.766357 3692.398682,2545.350586 3691.271729,2542.431641 
	C3680.017334,2513.282471 3668.893311,2484.073486 3656.961182,2455.200195 
	C3652.672119,2444.821777 3646.324219,2435.289795 3640.845703,2425.410889 
	C3639.557373,2423.087646 3638.104492,2420.833008 3636.521484,2418.699707 
	C3621.854248,2398.929443 3606.129150,2398.687256 3591.807373,2419.232178 
	C3583.872803,2430.614746 3577.053711,2443.075439 3571.649658,2455.861084 
	C3559.229736,2485.247803 3547.631836,2514.997803 3536.352783,2544.846924 
	C3522.719238,2580.926758 3509.822266,2617.284668 3496.452637,2653.465332 
	C3493.926514,2660.301270 3490.681641,2666.871338 3486.937988,2674.774414 
z"/>
<path fill="#050505" opacity="1.000000" stroke="none" 
	d="
M2509.807617,2333.948486 
	C2523.316406,2343.303711 2532.080322,2354.960938 2539.907959,2367.471436 
	C2560.819824,2400.894287 2577.105469,2436.604492 2591.469727,2473.184570 
	C2612.379150,2526.431641 2632.760254,2579.885986 2653.349121,2633.258789 
	C2655.025146,2637.603760 2656.921631,2641.906738 2658.110107,2646.389404 
	C2663.872314,2668.124512 2651.648926,2688.635010 2629.808105,2693.645020 
	C2613.067871,2697.485107 2592.587402,2693.674805 2581.346436,2674.520508 
	C2578.000000,2668.818604 2575.361328,2662.665039 2572.790039,2656.553711 
	C2569.986816,2649.890381 2567.638672,2643.035645 2564.810547,2635.516357 
	C2557.684326,2635.303955 2551.137939,2634.952637 2544.591064,2634.939941 
	C2512.607666,2634.877930 2480.623779,2634.828125 2448.640869,2634.940674 
	C2435.364502,2634.987305 2423.806152,2631.364014 2414.499512,2621.372314 
	C2403.964111,2610.061279 2401.066162,2596.718994 2405.401367,2582.467285 
	C2409.989258,2567.385010 2420.468262,2557.504639 2436.516113,2554.906494 
	C2442.391357,2553.955078 2448.447021,2553.868652 2454.422852,2553.833252 
	C2475.078125,2553.710449 2495.734863,2553.830811 2516.390381,2553.750244 
	C2521.646484,2553.729736 2526.900635,2553.307617 2533.322510,2553.017334 
	C2532.836426,2549.139160 2533.053223,2545.858887 2531.979980,2543.076172 
	C2520.496338,2513.303467 2509.300537,2483.402588 2496.940918,2453.992676 
	C2491.826416,2441.822998 2484.908447,2430.192139 2477.384521,2419.301514 
	C2463.250732,2398.842529 2446.742676,2398.346436 2432.867920,2418.759521 
	C2423.216309,2432.959473 2414.953613,2448.478516 2408.479004,2464.388428 
	C2392.939209,2502.573486 2378.684814,2541.285645 2364.171387,2579.882568 
	C2354.573242,2605.408691 2345.569336,2631.158203 2335.978271,2656.687012 
	C2333.424316,2663.485596 2330.224609,2670.174561 2326.385742,2676.330322 
	C2318.294189,2689.306152 2305.794434,2694.749023 2290.870850,2694.952393 
	C2267.766113,2695.267090 2248.291748,2677.858887 2251.370605,2652.795898 
	C2252.247559,2645.657715 2254.679199,2638.574707 2257.279297,2631.804932 
	C2276.833984,2580.886719 2296.510010,2530.013916 2316.354248,2479.207520 
	C2327.736328,2450.066162 2340.366699,2421.464355 2355.478027,2394.031982 
	C2360.934814,2384.125977 2366.532227,2374.266113 2372.649170,2364.760742 
	C2401.834473,2319.407227 2453.389404,2305.213135 2501.757324,2329.034180 
	C2504.140869,2330.208008 2506.353760,2331.729004 2509.807617,2333.948486 
z"/>
<path fill="#060606" opacity="1.000000" stroke="none" 
	d="
M3225.818604,2479.915771 
	C3257.532471,2479.894287 3287.454102,2479.884521 3317.375732,2479.895020 
	C3322.029297,2479.896729 3326.717529,2479.644531 3331.330322,2480.105469 
	C3348.483643,2481.819092 3360.587402,2495.172363 3360.602783,2512.081543 
	C3360.618164,2529.052734 3348.543945,2542.330811 3331.399902,2544.085205 
	C3328.763428,2544.354736 3326.085693,2544.264160 3323.427002,2544.265137 
	C3292.175537,2544.275146 3260.922852,2544.401855 3229.673340,2544.153809 
	C3223.815918,2544.107422 3217.540527,2543.614990 3212.206787,2541.468262 
	C3200.139893,2536.610596 3193.192627,2527.031982 3192.405518,2513.932617 
	C3191.616211,2500.789551 3197.561523,2490.644043 3208.955566,2484.352539 
	C3213.428955,2481.883057 3218.970947,2481.349365 3225.818604,2479.915771 
z"/>
<path fill="#0F0F0F" opacity="1.000000" stroke="none" 
	d="
M910.976929,2579.917236 
	C909.018921,2584.228760 905.574524,2584.628662 900.902466,2581.364746 
	C903.478088,2580.090332 906.788269,2579.738037 910.976929,2579.917236 
z"/>
<path fill="#FFFFFF" opacity="1.000000" stroke="none" 
	d="
M1298.233154,2542.212402 
	C1252.149292,2588.501953 1207.069824,2633.790283 1161.950806,2679.039062 
	C1161.612061,2679.378662 1160.732300,2679.178955 1160.105347,2679.230957 
	C1144.799683,2667.321289 996.198059,2518.703613 986.828674,2505.864746 
	C987.649109,2504.265625 988.169678,2502.172852 989.475281,2500.861084 
	C1045.728027,2444.332275 1102.050537,2387.872803 1159.155640,2330.611328 
	C1180.617188,2349.004639 1198.747803,2369.246094 1218.091309,2388.197510 
	C1237.586304,2407.297363 1256.749756,2426.735840 1276.028442,2446.055908 
	C1295.230225,2465.298828 1314.584717,2484.396729 1334.401245,2504.702393 
	C1323.106079,2518.532471 1310.579590,2529.329590 1298.233154,2542.212402 
M1049.999756,2552.000000 
	C1079.680542,2581.680420 1109.359863,2611.362793 1139.044434,2641.039307 
	C1142.342529,2644.336670 1145.517212,2647.779053 1149.017578,2650.847656 
	C1156.586182,2657.483643 1162.912354,2657.647949 1170.282471,2651.496094 
	C1172.831909,2649.368408 1175.096191,2646.894531 1177.451660,2644.539551 
	C1218.444458,2603.556641 1259.460693,2562.597412 1300.403320,2521.564453 
	C1315.783447,2506.150635 1315.767456,2505.824463 1299.961060,2489.987793 
	C1259.483154,2449.432617 1218.684326,2409.193115 1178.551025,2368.300293 
	C1162.650635,2352.098633 1156.778442,2352.705078 1141.302856,2368.457275 
	C1101.147827,2409.329346 1060.390015,2449.609131 1019.876038,2490.128906 
	C1017.520874,2492.484375 1015.076477,2494.765869 1012.883362,2497.265625 
	C1006.898743,2504.086914 1006.609070,2508.103516 1012.789185,2514.545410 
	C1024.318359,2526.562744 1036.240723,2538.202881 1049.999756,2552.000000 
z"/>
<path fill="#E0E0E0" opacity="1.000000" stroke="none" 
	d="
M784.484009,2421.914062 
	C780.459900,2419.980225 777.054382,2418.695068 775.382751,2416.232910 
	C772.121338,2411.429443 773.495789,2405.392822 777.635803,2402.010986 
	C781.668457,2398.716797 788.295227,2398.948730 792.271851,2402.523438 
	C796.481750,2406.307617 797.561218,2411.971924 793.959167,2416.771240 
	C792.147827,2419.184570 788.631470,2420.318359 784.484009,2421.914062 
z"/>
<path fill="#D8D8D8" opacity="1.000000" stroke="none" 
	d="
M1031.562256,2289.645996 
	C1028.976807,2285.383789 1026.468506,2281.937256 1026.465332,2278.488525 
	C1026.460327,2273.179688 1031.683838,2268.915039 1036.751221,2268.683105 
	C1041.863037,2268.449219 1045.391113,2271.162842 1047.572266,2275.456055 
	C1049.916626,2280.071045 1048.147583,2285.758301 1043.728760,2289.195312 
	C1040.332153,2291.837402 1036.643188,2291.994385 1031.562256,2289.645996 
z"/>
<path fill="#E0E0E0" opacity="1.000000" stroke="none" 
	d="
M887.055115,2263.799316 
	C891.507446,2263.336670 895.113708,2262.566162 897.782654,2263.808838 
	C903.288269,2266.371826 905.260742,2272.039795 903.454163,2277.012939 
	C901.605225,2282.103027 896.222656,2285.169678 890.757935,2284.246826 
	C885.517456,2283.361572 881.166260,2278.763916 881.605164,2273.078857 
	C881.835327,2270.097168 884.318726,2267.289551 887.055115,2263.799316 
z"/>
<path fill="#D8D8D8" opacity="1.000000" stroke="none" 
	d="
M911.200195,2341.825439 
	C910.655884,2346.231201 910.432129,2349.846680 908.554993,2352.060059 
	C904.209717,2357.183594 897.681335,2357.445801 893.027771,2353.546631 
	C888.626160,2349.858398 887.533447,2344.123535 890.361633,2339.555176 
	C893.881714,2333.869385 899.122437,2332.087402 905.259766,2335.112061 
	C907.436157,2336.184814 908.952148,2338.597412 911.200195,2341.825439 
z"/>
<path fill="#D8D8D8" opacity="1.000000" stroke="none" 
	d="
M1338.525146,2274.205322 
	C1335.905151,2268.932617 1336.833618,2265.141602 1339.444214,2262.032959 
	C1342.487549,2258.409180 1346.364014,2256.164795 1351.436279,2258.068604 
	C1356.775513,2260.072754 1360.283691,2265.071045 1359.713989,2269.932129 
	C1359.134155,2274.878174 1354.691284,2279.425049 1349.388794,2280.048828 
	C1345.230469,2280.538330 1341.776001,2278.941895 1338.525146,2274.205322 
z"/>
<path fill="#D8D8D8" opacity="1.000000" stroke="none" 
	d="
M1419.916260,2250.160645 
	C1423.579468,2251.373291 1426.424683,2252.075439 1427.935547,2253.889404 
	C1432.640625,2259.538574 1432.298706,2264.936279 1427.614990,2269.373535 
	C1423.208618,2273.547852 1416.215820,2273.492920 1411.920898,2269.250732 
	C1407.352295,2264.738037 1407.079590,2259.213379 1411.813599,2253.746582 
	C1413.358643,2251.962158 1416.225464,2251.322266 1419.916260,2250.160645 
z"/>
<path fill="#D8D8D8" opacity="1.000000" stroke="none" 
	d="
M1523.933350,2603.165039 
	C1524.505371,2598.681641 1524.621338,2595.001465 1526.487915,2592.817871 
	C1530.973755,2587.570312 1537.265869,2587.456055 1541.920654,2591.642578 
	C1546.054199,2595.360352 1547.008423,2600.883545 1544.351562,2605.713867 
	C1541.288696,2611.282227 1535.772339,2613.151367 1529.543335,2610.090088 
	C1527.410400,2609.041992 1526.009033,2606.505371 1523.933350,2603.165039 
z"/>
<path fill="#E0E0E0" opacity="1.000000" stroke="none" 
	d="
M907.255371,2199.264893 
	C907.370789,2195.195312 907.218689,2192.182373 908.587158,2190.240723 
	C912.871704,2184.161377 918.500671,2183.158691 923.766296,2186.868408 
	C928.910828,2190.492676 930.273193,2197.356934 926.866150,2202.487549 
	C923.517212,2207.530273 917.725586,2208.694580 911.453857,2205.192383 
	C909.874146,2204.310303 908.923401,2202.302246 907.255371,2199.264893 
z"/>
<path fill="#E0E0E0" opacity="1.000000" stroke="none" 
	d="
M909.822632,2745.287598 
	C909.968018,2749.768066 910.117981,2753.334473 908.568359,2755.855957 
	C905.624390,2760.645996 899.590271,2761.906494 894.804443,2759.690430 
	C890.736450,2757.806152 887.920959,2752.844482 888.434814,2748.464600 
	C889.057068,2743.160889 893.348389,2739.126465 899.141541,2738.829834 
	C903.296326,2738.616943 906.838074,2740.092041 909.822632,2745.287598 
z"/>
<path fill="#E8E8E8" opacity="1.000000" stroke="none" 
	d="
M833.210815,2724.606445 
	C832.095337,2728.454590 831.440857,2731.336914 829.637207,2732.842041 
	C824.350952,2737.252686 818.094238,2736.653076 814.149841,2731.973633 
	C810.835510,2728.041992 810.752686,2721.412842 813.969604,2717.554199 
	C817.797058,2712.963135 824.238342,2712.244873 829.505310,2716.451416 
	C831.312805,2717.894531 831.966187,2720.783203 833.210815,2724.606445 
z"/>
<path fill="#E8E8E8" opacity="1.000000" stroke="none" 
	d="
M1292.926514,2155.139648 
	C1291.138794,2160.815186 1288.509644,2163.549072 1284.143311,2164.134277 
	C1278.908569,2164.835693 1274.698853,2162.665771 1272.650269,2158.378418 
	C1270.552002,2153.987305 1271.318604,2148.618408 1274.704468,2145.649170 
	C1278.510132,2142.311523 1282.783081,2141.412354 1287.490356,2143.799561 
	C1291.455688,2145.810791 1292.988403,2149.236816 1292.926514,2155.139648 
z"/>
<path fill="#E8E8E8" opacity="1.000000" stroke="none" 
	d="
M978.821655,2734.348145 
	C982.789185,2739.963867 983.041748,2744.309326 980.005859,2748.585449 
	C977.286438,2752.416016 972.272095,2753.975342 967.665771,2752.397217 
	C963.614563,2751.009521 961.073425,2748.141602 960.282349,2743.902344 
	C959.423157,2739.298340 961.669250,2734.002686 966.284851,2732.712402 
	C969.774292,2731.736816 973.848083,2732.851562 978.821655,2734.348145 
z"/>
<path fill="#E8E8E8" opacity="1.000000" stroke="none" 
	d="
M1424.966431,2748.183350 
	C1421.277710,2746.326172 1418.516602,2745.106689 1417.408447,2743.012207 
	C1414.430786,2737.384521 1415.735107,2731.843750 1419.959839,2728.886963 
	C1424.371094,2725.799561 1430.958740,2726.248291 1434.536255,2729.879150 
	C1438.349731,2733.749512 1439.015747,2739.562012 1435.082153,2744.210449 
	C1433.216553,2746.414795 1429.516479,2747.066650 1424.966431,2748.183350 
z"/>
<path fill="#E8E8E8" opacity="1.000000" stroke="none" 
	d="
M1411.431885,2809.644531 
	C1412.232666,2813.172363 1412.893555,2815.348877 1412.278564,2817.069580 
	C1409.858154,2823.841797 1404.720947,2826.694824 1398.704346,2825.075195 
	C1393.308960,2823.623047 1390.245728,2818.645752 1391.189209,2812.864258 
	C1392.234619,2806.457764 1397.008179,2802.926270 1404.151489,2804.085449 
	C1406.490967,2804.464844 1408.529663,2806.698242 1411.431885,2809.644531 
z"/>
<path fill="#E8E8E8" opacity="1.000000" stroke="none" 
	d="
M1047.039673,2852.797363 
	C1048.551147,2858.439941 1048.071289,2862.270508 1044.906860,2865.316650 
	C1041.141968,2868.939941 1036.699097,2869.420166 1032.106323,2867.348877 
	C1027.326050,2865.192871 1024.969849,2858.818359 1026.909180,2853.886475 
	C1028.822754,2849.019531 1032.536377,2846.196533 1037.671631,2847.022705 
	C1040.684204,2847.507812 1043.406982,2849.794434 1047.039673,2852.797363 
z"/>
<path fill="#E8E8E8" opacity="1.000000" stroke="none" 
	d="
M1271.471802,2732.510742 
	C1271.618286,2726.583252 1273.195068,2723.097168 1277.160889,2721.144775 
	C1281.760986,2718.879150 1286.648071,2719.695312 1289.870483,2723.146729 
	C1293.542603,2727.079834 1293.985352,2733.713867 1290.844360,2737.738281 
	C1288.140625,2741.202393 1282.634033,2743.078613 1278.416260,2740.914551 
	C1275.727051,2739.534912 1273.879272,2736.515381 1271.471802,2732.510742 
z"/>
<path fill="#E8E8E8" opacity="1.000000" stroke="none" 
	d="
M1428.907715,2661.043945 
	C1431.399902,2666.848145 1429.812256,2670.429932 1427.048340,2673.475586 
	C1423.476685,2677.411377 1418.941528,2677.512939 1414.332886,2675.622314 
	C1410.021362,2673.853516 1407.508423,2668.931152 1408.248169,2664.285400 
	C1408.992065,2659.612305 1412.486938,2656.197021 1417.585083,2655.475586 
	C1421.753906,2654.885986 1425.456421,2655.852539 1428.907715,2661.043945 
z"/>
<path fill="#E8E8E8" opacity="1.000000" stroke="none" 
	d="
M916.772095,2606.909668 
	C914.317749,2610.935059 912.542786,2614.243164 909.851196,2615.379395 
	C904.445740,2617.660889 898.845276,2614.955811 896.552734,2610.087158 
	C894.466858,2605.657715 895.308777,2600.424561 898.606689,2597.318848 
	C902.685913,2593.477295 908.521240,2592.796631 912.898010,2596.710449 
	C915.072205,2598.655029 915.706055,2602.322021 916.772095,2606.909668 
z"/>
<path fill="#E8E8E8" opacity="1.000000" stroke="none" 
	d="
M1403.679932,2410.843018 
	C1404.337036,2397.784668 1407.087891,2394.396240 1414.356689,2395.206299 
	C1420.082886,2395.844482 1424.118652,2400.112305 1424.243896,2405.662354 
	C1424.369873,2411.245850 1420.683960,2415.593262 1414.854736,2416.516113 
	C1410.629272,2417.185303 1407.063721,2415.906494 1403.679932,2410.843018 
z"/>
<path fill="#E8E8E8" opacity="1.000000" stroke="none" 
	d="
M1502.075562,2295.679688 
	C1497.301758,2296.052979 1493.562744,2296.631592 1491.005249,2295.158447 
	C1486.028564,2292.292236 1484.941040,2286.413818 1487.354004,2281.323486 
	C1489.531494,2276.729980 1493.520020,2274.676270 1498.687622,2275.487305 
	C1504.400513,2276.384033 1508.328613,2280.411377 1507.857910,2286.406250 
	C1507.626953,2289.348877 1505.120850,2292.113037 1502.075562,2295.679688 
z"/>
<path fill="#FFFFFF" opacity="1.000000" stroke="none" 
	d="
M1048.999634,2551.000000 
	C1036.240723,2538.202881 1024.318359,2526.562744 1012.789185,2514.545410 
	C1006.609070,2508.103516 1006.898743,2504.086914 1012.883362,2497.265625 
	C1015.076477,2494.765869 1017.520874,2492.484375 1019.876038,2490.128906 
	C1060.390015,2449.609131 1101.147827,2409.329346 1141.302856,2368.457275 
	C1156.778442,2352.705078 1162.650635,2352.098633 1178.551025,2368.300293 
	C1218.684326,2409.193115 1259.483154,2449.432617 1299.961060,2489.987793 
	C1315.767456,2505.824463 1315.783447,2506.150635 1300.403320,2521.564453 
	C1259.460693,2562.597412 1218.444458,2603.556641 1177.451660,2644.539551 
	C1175.096191,2646.894531 1172.831909,2649.368408 1170.282471,2651.496094 
	C1162.912354,2657.647949 1156.586182,2657.483643 1149.017578,2650.847656 
	C1145.517212,2647.779053 1142.342529,2644.336670 1139.044434,2641.039307 
	C1109.359863,2611.362793 1079.680542,2581.680420 1048.999634,2551.000000 
z"/>
</svg>